<?xml version="1.0" standalone="no"?>
<svg version="1.1" id="Layer_1" xmlns="http://www.w3.org/2000/svg" xmlns:xlink="http://www.w3.org/1999/xlink" x="0px" y="0px" width="595.276px" height="595.276px" viewBox="0 0 595.276 595.276" enable-background="new 0 0 595.276 595.276" xml:space="preserve">
<path id="color_x5F_6" fill-rule="evenodd" clip-rule="evenodd" fill="#d7d6f0" d="M515.208,487.278h-21.631v-15.487
	c1.67,1.614,4.134,3.936,5.492,4.728c3.256,1.756,6.965,1.217,9.429-1.443l6.71,6.426V487.278z M197.858,449.368l8.211-19.904
	l-7.078-5.52l-5.861,8.494l-0.877,1.699c-2.378,3.793-6.257,5.86-11.382,6.681c-1.273,0.227-2.633,0.029-3.878-0.283
	c-0.142-0.028-0.284-0.057-0.424-0.114c-0.085-0.028-0.17-0.056-0.255-0.085c-4.219-1.273-7.73-4.614-9.456-8.634l-3.709,2.888
	l9.315,14.552c0.114,0.17,0.199,0.369,0.199,0.594v33.295l26.245-1.105l-1.133-32.134
	C197.773,449.651,197.802,449.51,197.858,449.368z M515.208,444.385v0.057l-1.671,0.17c-1.784,0.396-3.312,1.557-4.218,3.114
	l-3.511,6.116l-0.369-0.369l-6.313-6.625l2.972-1.585v1.5c0,0.679,0.651,1.19,1.387,0.935l9.739-3.313L515.208,444.385
	L515.208,444.385z M272.8,446.962h-27.859v-27.859H272.8V446.962z M320.054,446.962h-27.859v-27.859h27.859V446.962z
	 M367.334,446.962h-27.859v-27.859h27.859V446.962z M414.615,446.962h-27.859v-27.859h27.859V446.962z M461.896,446.962h-27.859
	v-27.859h15.742l12.089,11.523l0.028,3.057V446.962z M494.767,419.103l-0.68,1.132c-2.35,3.822-1.529,8.834,1.926,11.722
	l6.087,5.096v6.088l-0.028,0.028l-4.304,2.236l-16.449-17.242v-9.059h13.448V419.103z M220.055,371.454l4.077,15.231l23.159-6.228
	l-4.077-15.204L220.055,371.454z M235.485,378.334c-2.407,2.208-6.285,1.048-7.106-2.095c-0.991-3.708,3-6.795,6.37-4.87
	c1.84,1.077,2.661,3.313,1.869,5.324l3.708,2.151c1.161,0.651,0.142,2.378-0.991,1.727L235.485,378.334z M233.759,373.096
	c-1.813-1.048-4.021,0.594-3.455,2.69c0.566,1.982,3.284,2.293,4.304,0.509C235.259,375.162,234.862,373.718,233.759,373.096z
	 M509.177,363.016h-69.732l-57.219-31.54l41.365-19.847l85.587,42.186v9.201H509.177z M338.399,309.592l-93.458,32.643v20.781
	h190.37L338.399,309.592z M169.547,303.477h-25.169v-54.019h44.308v5.86c-3.001-0.424-6.002,0.199-8.494,1.642
	c-7.87,4.558-8.89,15.459-2.095,21.404c-12.032-0.481-23.046,7.446-26.216,19.337c-0.142,0.538,0.17,1.076,0.707,1.218
	L169.547,303.477z M198.397,274.712c-1.897,3.454-5.238,5.889-9.088,6.653c3.681,1.926,6.766,4.671,9.088,7.927V274.712z
	 M198.397,249.457v12.655c-1.614-2.944-4.304-5.266-7.701-6.341v-6.313L198.397,249.457L198.397,249.457z M398.138,197.957h-5.521
	c5.408-3.793,2.719-12.344-3.878-12.344l-7.786-0.085l-21.659-2.605h38.844c2.095,0,3.964,0.822,5.323,2.18
	C408.188,189.832,404.819,197.957,398.138,197.957z M352.103,197.165c-2.888,0-5.464,0.397-7.702-1.841
	c-4.388-4.388-0.452-12.259,6.06-11.466l29.954,3.624v9.683L352.103,197.165L352.103,197.165z M331.746,158.746h-57.871
	c-0.991,0-1.982-0.199-2.86-0.566c-0.906-0.396-1.727-0.935-2.434-1.642c-1.416-1.416-2.208-3.313-2.208-5.295v-18.347
	c0-2.094,0.849-3.963,2.208-5.323c1.358-1.358,3.227-2.18,5.294-2.18h40.968c4.133,0,7.474,3.341,7.474,7.503v17.157
	c0,0.34,0.17,0.623,0.424,0.793L331.746,158.746z M297.488,131.141c0.341-1.274,2.265-0.765,1.926,0.509l-5.917,22.083
	c-0.341,1.274-2.265,0.736-1.926-0.537L297.488,131.141z M284.437,134.341c0.934-0.934,2.349,0.481,1.415,1.415l-6.313,6.314
	l6.313,6.284c0.934,0.935-0.481,2.35-1.415,1.416l-6.993-6.993c-0.397-0.397-0.397-1.019,0-1.415L284.437,134.341z M305.133,135.756
	c-0.934-0.934,0.481-2.349,1.415-1.415l6.993,7.021c0.397,0.397,0.397,1.019,0,1.415l-6.993,6.993
	c-0.934,0.934-2.349-0.481-1.415-1.416l6.285-6.284L305.133,135.756z M459.801,136.152h-69.195l9.031-7.87
	c0.256-0.17,0.397-0.481,0.397-0.793v-17.185c0-4.134,3.369-7.503,7.503-7.503h52.264c4.133,0,7.502,3.369,7.502,7.503v18.375
	C467.303,132.811,463.934,136.152,459.801,136.152z M429.054,126.385c-1.047-0.907-1.67-2.237-1.897-3.992l3.086-0.284
	c0.34,1.983,1.415,3.001,3.398,3.001c3,0,3.539-2.151,2.746-3.114c-1.019-1.19-5.295-1.161-7.219-2.887
	c-2.69-2.407-1.841-7.503,4.247-7.503c3.369,0,5.889,1.415,6.002,4.728l-3.171,0.141c-0.255-1.67-1.161-2.264-2.859-2.264
	c-2.718,0-3.142,1.67-2.179,2.491c1.897,1.585,8.635,0.679,8.635,6.228c0,1.869-1.076,3.511-2.831,4.247
	C434.83,128.112,430.952,128.027,429.054,126.385z M443.606,126.385c-1.076-0.907-1.698-2.237-1.897-3.992l3.058-0.284
	c0.368,1.983,1.415,3.001,3.397,3.001c3.029,0,3.54-2.151,2.747-3.114c-0.991-1.19-5.295-1.161-7.191-2.887
	c-2.69-2.407-1.841-7.503,4.247-7.503c3.341,0,5.861,1.415,5.974,4.728l-3.143,0.141c-0.283-1.67-1.161-2.264-2.86-2.264
	c-2.746,0-3.17,1.67-2.179,2.491c1.869,1.585,8.635,0.679,8.635,6.228c0,1.869-1.076,3.511-2.86,4.247
	C449.354,128.112,445.504,128.027,443.606,126.385z M418.777,127.744c-4.446,0-7.106-3.312-7.106-7.927
	c0-8.975,8.579-9.682,11.947-6.511c0.708,0.679,1.245,1.613,1.614,2.86l-3.143,0.764c-0.679-3.058-4.36-3.369-6.087-1.387
	c-1.501,1.727-1.444,6.597-0.029,8.267c1.529,1.784,5.267,2.151,6.229-2.066l3.057,0.963
	C424.355,126.045,422.203,127.744,418.777,127.744z"></path>
<path id="color_x5F_5" fill-rule="evenodd" clip-rule="evenodd" fill="#ffcdd3" d="M217.847,460.976h-17.695l-0.397-11.042
	l8.438-20.328c0.424-0.963-0.538-1.444-1.444-2.151v-26.359c0.312-0.991,0.509-2.01,0.594-3.029c0.17-1.869-0.028-3.001-0.255-4.756
	l10.759-2.887V460.976z M188.685,247.447h-45.328c-0.537,0-0.991,0.453-0.991,1.02v56.001c0,0.537,0.453,0.991,0.991,0.991h33.635
	l24.15,6.483c0.538,0.142,1.077-0.17,1.218-0.707c1.727-6.512,0.878-13.08-1.982-18.658v-44.109c0-0.566-0.452-1.02-0.991-1.02
	h-8.691v-16.506h27.151v139.04l-28.284,7.588h-46.206c-1.302,0-1.302,1.983,0,1.983h38.76l-43.601,11.693
	c-0.538,0.141-0.849,0.679-0.708,1.217l4.587,17.157c0.141,0.509,0.707,0.849,1.217,0.707l9.513-2.576l9.201,24.943
	c-0.764,0.623-1.953,1.245-1.33,2.208l9.654,15.119v10.957h-37.881c-4.162,0-7.503-3.341-7.503-7.474V230.941h63.419
	L188.685,247.447L188.685,247.447z M495.786,421.254c-1.841,3.001-1.19,6.908,1.529,9.173l6.37,5.352
	c0.255,0.17,0.424,0.481,0.424,0.792v8.805l7.87-2.661v-12.004c0-0.793,0.935-1.302,1.586-0.793c1.33,0.963,1.585,1.415,3.057,1.245
	c1.104-0.113,2.208-1.614,1.812-2.831l-0.878-1.302c-0.622-0.481-2.123-1.416-2.293-1.926l0.029-0.679l3.652-8.918
	c-5.549,0.056-10.673-2.208-14.326-6.512l-0.736-0.935L495.786,421.254z M473.193,430.654c-1.218-1.529-4.898-4.756-6.342-4.615
	c-1.472,0.086-2.718,3.596-2.972,4.332c0.056,2.407,0.849,4.503,2.803,5.691c1.358,0.764,2.86,1.076,4.417,1.048l0.142-0.028
	l0.509-0.623l0.707-1.218c0.538-1.104,1.416-3.312,1.162-3.878l-0.142-0.284L473.193,430.654z M165.498,423.35l-6.823-17.327
	c-0.085-0.256-0.085-0.538,0.028-0.793l1.585-3.822l0.142-0.878c-0.085-0.906-1.133-2.349-1.387-2.775
	c-0.452-0.792-1.358-1.132-2.208-0.877l-3.001,0.906c-0.906,0.255-1.5,1.161-1.33,2.151c0.34,2.095,0.708,4.304,1.897,6.116
	l0.595,0.963l9.003,24.404l2.18-1.727v-0.057l-0.51-3.963C165.583,424.935,165.555,424.171,165.498,423.35z M198.963,421.537
	v-20.214l-2.435-3.001l-0.849-1.954l-13.506,3.625c6.625,0.424,9.4,8.097,11.297,15.77c0.877,3.652,1.415,7.531,1.076,11.154
	l3.397-4.954C198.17,421.622,198.566,421.481,198.963,421.537z M203.181,391.753c0.85,0,1.472,0.481,1.813,1.245l0.311,2.066
	c0.453,3.37-0.537,5.379-0.537,5.89v24.971l-3.822-2.972v-21.998c0-0.256-0.113-0.51-0.283-0.68l-2.577-3.199
	c-0.198-0.227-0.34-0.481-0.397-0.764c-0.17-0.708,0.312-2.208,0.509-3.086c0.227-0.878,0.991-1.472,1.869-1.472h3.114V391.753z
	 M172.236,407.92c5.238-2.916,5.294-5.634,6.88-7.106l-18.403,4.926l4.926,12.543C166.149,414.29,167.791,410.383,172.236,407.92z
	 M440.464,408.089l10.193-10.193c-0.227-2.491-1.501-11.211-8.097-14.552c-3.2-1.614-7.05-2.406-10.617-3.086
	c0.594,10.165-6.399,9.824-9.711,9.088C424.1,396.425,428.913,404.182,440.464,408.089z M199.387,359.053h-56.03
	c-1.302,0-1.302,1.982,0,1.982h56.03C200.69,361.035,200.69,359.053,199.387,359.053z M199.387,340.509h-56.03
	c-1.302,0-1.302,2.01,0,2.01h56.03C200.69,342.518,200.69,340.509,199.387,340.509z M199.387,321.992h-56.03
	c-1.302,0-1.302,2.011,0,2.011h56.03C200.69,324.003,200.69,321.992,199.387,321.992z M398.279,180.914h-32.134l7.106-26.444h32.105
	L398.279,180.914z M387.266,161.576c4.983,0,6.257,6.116,1.755,9.654c-2.378,1.869-6.03,2.35-7.898-0.17h-0.029
	C378.432,167.465,382.368,161.576,387.266,161.576z M376.054,119.279v16.109c0,3.935-2.775,7.247-6.597,7.983
	c-0.452,0.085-0.793,0.51-0.793,0.963v3.228c0,1.982-2.094,3.397-3.963,2.633c-1.076-0.453-1.756-1.5-1.756-2.633v-3.058
	c0-0.566-0.396-0.991-0.962-1.019c-2.86-0.255-5.324-2.887-5.324-6.003v-4.105c0-0.566-0.452-0.991-1.019-0.991h-2.69
	c-2.123,0-3.142-2.548-1.67-4.02c0.396-0.397,0.962-0.679,1.557-0.679h2.803c0.566-0.001,1.019-0.453,1.019-1.02v-7.389
	L376.054,119.279L376.054,119.279z M359.661,134.51c-0.17-1.33,1.841-1.529,1.982-0.255c0,0.028,0.284,2.972,4.446,2.491
	c1.302-0.141,1.529,1.841,0.227,1.983C360.143,139.436,359.661,134.51,359.661,134.51z M326.338,91.674h-2.944v-4.02
	c0-0.397-0.255-0.765-0.594-0.906c-2.151-1.162-3.963-2.86-5.21-4.927c-3.199-5.295-2.349-12.089,2.011-16.449
	c5.238-5.238,13.759-5.238,18.997,0c6.427,6.427,4.728,17.214-3.255,21.404c-0.341,0.17-0.538,0.509-0.538,0.878v4.02h-3.199v-10.08
	c0-0.65,0.708-0.396,1.359-0.65c1.189-0.453,1.585-1.444,1.585-2.605c0-1.529-1.245-2.775-2.775-2.775h-5.606
	c-1.528,0-2.775,1.245-2.775,2.775c0,0.792,0.114,1.443,0.736,2.039c1.048,1.076,1.926,0.452,2.152,0.991L326.338,91.674z
	 M329.623,91.618h-1.274V81.595c0-1.358-1.133-2.491-2.491-2.491c-0.651,0-0.538-1.019-0.227-1.33
	c0.141-0.142,0.312-0.227,0.537-0.227h5.606c0.934,0,1.076,1.557,0.312,1.557c-1.359,0-2.463,1.133-2.463,2.491V91.618z"></path>
<path id="color_x5F_4" fill-rule="evenodd" clip-rule="evenodd" fill="#421b38" d="M204.455,554.802h-15.628l0.566-7.758h9.484
	L204.455,554.802z M170.339,554.802v-8.975l-9.625-1.528l-4.813,10.503H170.339z M523.588,554.802h-16.024l5.776-10.617h8.465
	L523.588,554.802z M500.627,554.802h-19.054l11.381-10.617h7.673V554.802z M514.217,465.562l-4.559,7.87l24.319,23.188l5.04-5.039
	L514.217,465.562z M504.761,455.626l-25.736-26.982l-3.398,3.37c-0.113,0.877-0.537,2.236-1.104,3.511l-0.708,1.358l-1.048,1.387
	l27.095,25.849L504.761,455.626z M172.01,435.609c2.123,1.953,4.926,3.312,8.125,3.312c0.821-0.113,1.614-0.255,2.35-0.452
	c4.417-1.077,7.163-3.398,8.663-6.455c1.529-3.115,1.812-7.05,1.245-11.325c-0.198-1.444-0.481-2.916-0.877-4.445
	c-1.387-5.606-2.86-9.174-4.502-11.353c-1.529-2.011-3.171-2.804-5.012-2.916c-1.443-0.085-1.812,0.566-2.463,1.614
	c-0.934,1.585-2.265,3.793-6.342,6.087c-6.568,3.653-5.917,11.495-5.463,17.015l0.056,0.736
	C168.046,430.257,169.575,433.344,172.01,435.609z M504.647,405.711c3.228,5.011,8.296,7.87,14.242,7.814l1.443-0.085
	c0.708-0.113,1.416,0.595,1.048,1.416l-3.935,9.54c0.963,0.623,1.897,1.387,2.463,2.293c2.18-0.906,7.956-3.793,9.315-9.966
	c-0.764-2.236-7.077-19.45-23.754-24.065C504.138,393.678,499.664,397.954,504.647,405.711z M198.028,292.406
	c-3.114-5.35-8.239-9.541-14.665-11.239c-12.514-3.37-25.453,3.793-29.274,16.109l46.573,12.457
	c0.849-3.708,0.764-7.474-0.086-10.957c-0.056-0.283-0.113-0.537-0.198-0.736L198.028,292.406z M387.634,304.92
	c4.19-4.19,4.19-10.957,0-15.147c-6.767-6.738-18.29-1.926-18.29,7.588C369.345,306.846,380.896,311.659,387.634,304.92z
	 M183.872,279.213c9.626,2.605,17.611-7.787,12.628-16.421c-4.983-8.608-17.978-6.937-20.555,2.69c-0.793,3-0.312,6.031,1.133,8.522
	C178.493,276.495,180.9,278.42,183.872,279.213z M493.605,219.191c-2.066-2.066-5.577-0.594-5.577,2.322
	c0,2.915,3.539,4.36,5.577,2.321C494.88,222.56,494.908,220.466,493.605,219.191z M508.215,219.191
	c-2.066-2.066-5.606-0.594-5.606,2.322c0,2.915,3.54,4.36,5.606,2.321C509.489,222.56,509.489,220.466,508.215,219.191z
	 M522.795,219.191c-2.067-2.066-5.577-0.594-5.577,2.322c0,2.887,3.511,4.36,5.577,2.321
	C523.051,223.835,524.833,221.23,522.795,219.191z M388.738,197.165h-6.342v-9.569h6.342c2.633,0,4.785,2.151,4.785,4.784
	C393.523,195.042,391.371,197.165,388.738,197.165z M349.016,113.163c-2.066,4.474,0.821,10.702,2.038,12.938
	c1.019-0.481,2.463-0.509,3.596-0.481v-7.333c0-0.537,0.452-0.991,0.991-0.991h21.404c0.566,0,0.991,0.453,0.991,0.991v6.172
	c3.624-1.897,5.267-4.049,5.861-5.011c-5.691-6.966-12.316-11.665-20.753-13.109c-6.909-1.189-7.673,3.455-7.673,3.483
	c-0.113,0.708-0.991,1.076-1.585,0.623C353.886,110.417,351.282,108.293,349.016,113.163z"></path>
<path id="color_x5F_3" fill-rule="evenodd" clip-rule="evenodd" fill="#421b38" d="M101.682,544.185v10.617H46.757v-10.617
	H101.682z M196.952,484.022l-22.592,1.019l-5.125,22.566l-0.028,0.141l-7.871,34.626l9.202,1.472l10.673-50.962
	c0.765-3.539,6.116-3.142,6.257,0.51l0.538,14.071v0.028l1.443,37.542h8.918L196.952,484.022z M515.321,489.26l6.2,52.916h-7.899
	l-5.323-34.824v-0.086l-2.293-15.005c-0.198-1.161-1.954-1.105-1.982,0.142l-3.341,49.772h-7.106V489.26H515.321z M515.236,446.424
	c-1.727-0.028-3.284,0.736-4.19,2.293l-10.08,17.497c-0.34,0.538-1.076,0.651-1.585,0.199l-11.806-11.268
	c-0.651,2.293-1.077,4.077-0.199,6.511c1.133,3.058,3.794,4.927,5.832,6.966c1.869,1.783,4.7,4.926,6.852,6.171
	c2.775,1.614,6.031,0.566,7.673-2.011l11.24-19.478C520.785,450.161,518.378,446.509,515.236,446.424z M483.3,451.067
	l-12.542-11.976c-0.142-0.056-3.653,0.17-6.314-2.236c1.586,6.313,5.182,9.173,9.541,13.533c2.038,2.039,5.125,2.662,7.785,1.557
	C482.309,451.718,482.818,451.435,483.3,451.067z M474.948,429.861l2.69-2.661l-25.962-27.237l-9.315,9.315l20.13,19.196
	c0.792-1.755,2.406-4.614,4.699-4.417C469.569,424.284,473.363,427.483,474.948,429.861z M421.75,387.167
	c1.982,0.566,8.861,1.954,8.154-7.305c-3.511-0.707-6.597-1.472-8.494-3.085C421.155,379.098,420.957,382.891,421.75,387.167z
	 M527.128,213.586c4.133,0,7.502,3.369,7.502,7.502v7.842H190.696v-15.344H527.128z M188.685,213.586v15.344h-63.419v-7.842
	c0-4.133,3.341-7.502,7.503-7.502H188.685z M524.211,225.222c-3.313,3.341-9.003,0.963-9.003-3.708c0-2.916,2.378-5.295,5.266-5.295
	C525.145,216.219,527.552,221.881,524.211,225.222z M495.022,225.222c-3.341,3.341-9.004,0.934-9.004-3.708
	c0-2.916,2.379-5.295,5.267-5.295C495.955,216.219,498.363,221.91,495.022,225.222z M509.602,225.222
	c-3.312,3.341-8.975,0.934-8.975-3.708c0-2.916,2.35-5.295,5.267-5.295C510.565,216.219,512.943,221.91,509.602,225.222z
	 M352.697,173.723V148.61c0-1.274-0.764-2.379-1.926-2.86c-1.925-0.821-4.275,0.537-4.275,2.86v27.632
	c0,2.576,2.095,4.671,4.671,4.671h12.91l1.671-6.2h-12.061C353.121,174.713,352.697,174.289,352.697,173.723z M378.036,145.666
	v6.795h2.095v-3.85C380.131,147.251,379.31,146.146,378.036,145.666z M334.209,98.837c-0.284,0.538-0.651,1.048-1.076,1.472
	c-2.775,2.775-7.418,1.954-9.145-1.472H334.209z M334.804,93.684l-0.028,3.143h-11.353l-0.029-3.143H334.804z"></path>
<path id="color_x5F_2" fill="#ffcdd3" d="M354.678,172.732h11.608l5.21-19.479l0.255-0.481l0.028-0.028l0.68-0.283h3.595v-6.965
	h-5.407c0,1.388,0.141,2.69-0.368,3.907c-0.991,2.435-3.823,3.68-6.341,2.633c-3.285-1.358-3.001-3.821-3.001-6.54h-7.305
	c0.68,0.907,1.048,1.982,1.048,3.115v24.121H354.678z M148.54,49.472c-7.676,0-14.817,2.171-21.019,5.9
	c-6.426,3.869-11.702,8.487-15.45,15.187c-0.401,0.802-1.384,1.085-2.142,0.614l-0.134-0.141c-2.276-1.793-4.819-3.256-7.541-4.2
	c-2.634-0.944-5.489-1.463-8.435-1.463c-7.273,0-13.957,4.112-18.731,9.161c-4.417,4.673-7.273,11.042-7.674,18.074h123.428
	c-0.401-11.703-5.088-22.274-12.405-30.012C170.806,54.474,160.23,49.472,148.54,49.472z M561.47,155.857
	c-3.03-3.029-7.22-4.898-11.835-4.898c-1.869,0-3.68,0.312-5.352,0.878c-1.727,0.566-3.34,1.444-4.784,2.52l-0.085,0.085
	c-0.481,0.283-1.104,0.113-1.359-0.369c-2.378-4.02-5.775-7.389-9.852-9.71c-3.935-2.237-8.466-3.54-13.336-3.54
	c-7.417,0-14.127,3.001-18.969,7.871c-4.642,4.642-7.616,10.985-7.87,18.006h78.311C566.084,162.482,564.272,158.661,561.47,155.857
	z M54.798,542.175h38.844v-31.314H54.798V542.175z M418.579,539.061h-177.29c-6.966,0-10.475,8.494-5.549,13.42
	c1.415,1.443,3.397,2.321,5.549,2.321h177.289c2.18,0,4.134-0.878,5.577-2.321C429.083,547.555,425.572,539.061,418.579,539.061z
	 M244.941,340.112l93.204-32.53c0.283-0.113,0.566-0.085,0.821,0.057l41.109,22.677l43.09-20.696
	c0.284-0.114,0.595-0.114,0.878,0.028l85.135,41.959v-82.898H244.941V340.112z M380.061,285.708c6.475,0,11.723,5.249,11.723,11.724
	s-5.249,11.723-11.723,11.723c-6.475,0-11.723-5.249-11.723-11.723C368.337,290.957,373.586,285.708,380.061,285.708z"></path>
<path id="color_x5F_1" fill="#421b38" d="M562.743,556.783h-3.906c-0.538,0-0.992-0.452-0.992-0.991
	c0-0.566,0.453-0.991,0.992-0.991h3.906c0.538,0,0.991,0.424,0.991,0.991C563.734,556.331,563.281,556.783,562.743,556.783z
	 M190.696,175.959v21.998h153.847c-0.566-0.34-1.076-0.764-1.557-1.217c-0.764-0.793-1.387-1.699-1.784-2.69v-0.029
	c-0.424-0.991-0.651-2.066-0.651-3.171c0-1.273,0.284-2.548,0.793-3.708c0.538-1.161,1.302-2.208,2.265-3.057
	c0.963-0.85,2.094-1.501,3.312-1.869c0.284-0.085,0.566-0.17,0.85-0.227c-0.481-0.283-0.935-0.623-1.331-1.019
	c-1.189-1.218-1.953-2.888-1.953-4.728V148.61c0-0.68,0.141-1.331,0.396-1.954s0.623-1.19,1.105-1.642
	c0.481-0.481,1.048-0.85,1.642-1.105c0.623-0.255,1.302-0.397,1.954-0.397h7.814c-0.255-0.227-0.48-0.424-0.679-0.679
	c-1.273-1.415-2.066-3.313-2.066-5.351v-3.114h-1.699c-1.218,0-2.293-0.481-3.086-1.273c-0.792-0.793-1.273-1.869-1.273-3.058
	c0-0.991,0.34-1.897,0.877-2.633c-1.161-2.151-4.812-9.541-2.264-15.062c2.293-4.927,5.153-4.756,6.71-4.134
	c0.849-1.84,3.199-4.926,9.569-3.822c4.077,0.68,7.984,2.123,11.693,4.502c3.737,2.322,7.276,5.549,10.702,9.853
	c0.227,0.284,0.255,0.679,0.113,1.02c0,0-1.727,3.991-7.955,6.936v8.692c0,2.435-0.849,4.699-2.293,6.426
	c-0.538,0.651-1.133,1.218-1.784,1.699h3.086c0.679,0,1.33,0.142,1.954,0.397c0.622,0.255,1.189,0.623,1.642,1.105
	c0.481,0.452,0.849,1.019,1.104,1.642c0.256,0.622,0.396,1.273,0.396,1.954v3.85h24.518c0.085,0,0.17,0.028,0.255,0.056
	c0.538,0.142,0.85,0.68,0.708,1.218l-7.333,27.435c1.756,0.396,3.341,1.302,4.587,2.548c1.727,1.699,2.774,4.077,2.774,6.71
	s-1.047,5.012-2.774,6.739c-0.284,0.283-0.566,0.537-0.907,0.792h135.049c1.218,0,2.435,0.227,3.568,0.68l0.056,0.028
	c1.133,0.481,2.208,1.161,3.086,2.066c0.878,0.878,1.586,1.926,2.066,3.086c0.453,1.133,0.708,2.378,0.708,3.624v99.152
	c0,0.274-0.114,0.536-0.314,0.723c-0.201,0.188-0.469,0.284-0.743,0.267c0-0.001,0-0.001-0.001-0.001
	c-0.519-0.034-0.924-0.465-0.924-0.986c0-10.087,0-99.155,0-99.155c0-0.991-0.199-1.982-0.594-2.887
	c-0.369-0.878-0.907-1.699-1.614-2.406c-0.708-0.708-1.529-1.274-2.435-1.642h-0.028c-0.906-0.369-1.841-0.566-2.832-0.566H190.696
	v11.636h336.432c2.633,0,4.982,1.076,6.71,2.803c1.727,1.699,2.775,4.077,2.775,6.71v232.414c0,2.604-1.048,4.983-2.775,6.71
	c-1.728,1.698-4.077,2.775-6.71,2.775h-9.91v2.831l23.924,25.084c0.369,0.397,0.369,1.02-0.028,1.387l-6.427,6.427
	c-0.368,0.397-1.019,0.397-1.415,0l-16.053-15.317v4.813l2.123,18.262h19.677c0.991,0,1.982-0.199,2.859-0.595
	c0.906-0.368,1.727-0.906,2.435-1.613c0.707-0.708,1.245-1.529,1.614-2.435c0.396-0.878,0.594-1.869,0.594-2.86V328.999
	c0-0.305,0.138-0.591,0.376-0.782c0.237-0.19,0.547-0.262,0.844-0.195h0.001c0.444,0.1,0.761,0.495,0.761,0.951
	c0,12.462,0,169.998,0,169.998c0,1.246-0.255,2.491-0.708,3.624c-0.48,1.162-1.189,2.208-2.066,3.086
	c-0.906,0.878-1.954,1.585-3.086,2.066c-1.132,0.453-2.378,0.708-3.624,0.708h-19.422l4.049,34.569v0.057l1.954,11.721h14.807
	c0.566,0,1.019,0.424,1.019,0.991c0,0.538-0.452,0.991-1.019,0.991H37.386c-0.537,0-0.991-0.452-0.991-0.991
	c0-0.566,0.453-0.991,0.991-0.991h7.39v-11.608c0-0.566,0.452-1.019,0.991-1.019h7.049V509.87c0-0.566,0.453-0.991,0.991-0.991
	h4.191v-332.92H28.496c-0.114,0-0.199-0.028-0.284-0.056l-0.028-0.029h-0.057v-0.028h-0.056v-0.029h-0.029l-0.028-0.028h-0.029
	v-0.028h-0.028v-0.029H27.93l-0.029-0.028l-0.028-0.028h-0.028v-0.029l-0.029-0.028h-0.028v-0.057H27.76v-0.028h-0.029v-0.028
	l-0.028-0.029v-0.028h-0.028v-0.057h-0.029v-0.056h-0.028v-0.029c-0.028-0.085-0.057-0.17-0.057-0.283v-30.521
	c0-0.537,0.453-0.991,0.991-0.991h161.124c0.312,0,0.566,0.114,0.736,0.312l21.546,21.517c0.17,0.199,0.283,0.453,0.283,0.708v8.918
	c0,0.538-0.452,0.991-0.991,0.991h-20.554V175.959z M554.222,556.783h-9.173c-0.538,0-0.991-0.452-0.991-0.991
	c0-0.566,0.452-0.991,0.991-0.991h9.173c0.538,0,0.991,0.424,0.991,0.991C555.212,556.331,554.76,556.783,554.222,556.783z
	 M33.111,556.783h-5.917c-0.538,0-0.991-0.452-0.991-0.991c0-0.566,0.452-0.991,0.991-0.991h5.917c0.566,0,1.02,0.424,1.02,0.991
	C34.13,556.331,33.677,556.783,33.111,556.783z M485.763,462.987H200.236l0.708,19.875c0.028,0.537-0.396,1.019-0.963,1.019
	l-1.048,0.057l0.538,22.537H422.86c0.43,0,0.808,0.288,0.922,0.702c0.006,0.023,0.013,0.047,0.019,0.07
	c0.079,0.288,0.02,0.595-0.161,0.833s-0.462,0.377-0.761,0.377c-5.107,0-24.064,0-24.064,0v28.595h19.762
	c2.718,0,5.21,1.104,6.993,2.917c1.784,1.783,2.887,4.247,2.887,6.964c0,2.718-1.104,5.181-2.887,6.965
	c-0.34,0.34-0.68,0.623-1.048,0.906h54.104l12.938-12.06v-34.286h-19.54c-0.296,0-0.575-0.137-0.756-0.371s-0.244-0.537-0.17-0.824
	c0.006-0.023,0.012-0.046,0.018-0.07c0.109-0.422,0.489-0.717,0.926-0.717c3.649,0,19.522,0,19.522,0v-36.692
	c-2.179-2.123-3.935-3.907-3.963-3.907l-0.028-0.057C486.811,464.968,486.216,464.033,485.763,462.987z M188.685,175.959H90.443
	V508.88h4.218c0.538,0,0.992,0.424,0.992,0.991v32.305h7.049c0.537,0,0.991,0.452,0.991,1.019v11.608h49.999l5.492-11.947
	l7.814-34.399h-46.121c-1.245,0-2.491-0.255-3.624-0.708c-1.133-0.481-2.151-1.161-3.029-2.01l-0.057-0.057
	c-0.878-0.878-1.585-1.925-2.066-3.086c-0.481-1.133-0.708-2.378-0.708-3.624v-291.53c0-1.245,0.227-2.491,0.708-3.624
	c0.481-1.161,1.189-2.208,2.066-3.086c0.878-0.906,1.926-1.585,3.086-2.066c1.133-0.481,2.378-0.708,3.624-0.708h67.807v-21.999
	H188.685z M198.878,547.044h-9.484l-0.566,7.758h15.628L198.878,547.044z M521.804,544.185h-8.465l-5.776,10.617h16.024
	L521.804,544.185z M500.627,544.185h-7.673l-11.381,10.617h19.054V544.185z M261.079,508.455H199.5l0.878,37.259l6.54,9.088h28.425
	c-0.34-0.283-0.708-0.566-1.02-0.906c-1.783-1.784-2.887-4.247-2.887-6.965s1.105-5.182,2.887-6.964
	c1.784-1.813,4.247-2.917,6.966-2.917h19.79V508.455z M418.579,539.061h-177.29c-2.152,0-4.134,0.877-5.549,2.293
	c-1.416,1.443-2.293,3.397-2.293,5.577c0,2.18,0.877,4.133,2.293,5.549c1.415,1.443,3.397,2.321,5.549,2.321h177.289
	c2.18,0,4.134-0.878,5.577-2.321c1.416-1.416,2.294-3.369,2.294-5.549s-0.878-4.134-2.294-5.577
	C422.713,539.938,420.759,539.061,418.579,539.061z M101.682,544.185H46.757v10.617h54.925V544.185z M506.46,508.455h-1.529
	l-2.322,34.739v11.608h2.69l6.427-11.806L506.46,508.455z M186.053,508.455h-6.059l-7.673,36.607v9.739h14.495l0.651-8.776
	L186.053,508.455z M170.339,554.802v-8.975l-9.625-1.528l-4.813,10.503H170.339z M198.368,545.035l-0.991-42.922l-0.424-18.091
	l-22.592,1.019l-5.125,22.566c0,0.056-0.028,0.113-0.028,0.141l-7.871,34.626l9.202,1.472l10.673-50.962
	c0.171-0.736,0.566-1.33,1.077-1.783c0.537-0.425,1.218-0.68,1.954-0.68h0.141c0.821,0,1.586,0.34,2.152,0.878
	c0.537,0.509,0.906,1.274,0.934,2.095l0.538,14.071v0.028l1.443,37.542H198.368z M515.321,489.26h-21.744v52.916h7.106l2.321-34.768
	v-0.028l0.481-7.191l0.538-7.786c0-0.481,0.34-0.907,0.849-0.963c0.538-0.085,1.048,0.283,1.133,0.821l2.293,15.005v0.086
	l5.323,34.824h7.899l-4.049-34.598L515.321,489.26z M93.642,510.861H54.798v31.314h38.844V510.861z M396.807,508.455H263.061v28.595
	h133.746V508.455z M88.461,481.842L61.423,508.88h27.038V481.842z M448.077,506.474c0.283,0,0.551,0.125,0.732,0.342
	c0.182,0.217,0.259,0.502,0.209,0.781c-0.004,0.023-0.008,0.046-0.012,0.07c-0.081,0.456-0.477,0.789-0.941,0.789
	c-3.339,0-16.132,0-19.874,0c-0.522,0-0.948-0.418-0.956-0.941c0.012-0.027,0.015-0.054,0.018-0.081
	c-0.001-0.253,0.098-0.494,0.276-0.672c0.178-0.179,0.419-0.28,0.671-0.28C431.579,506.474,444.198,506.474,448.077,506.474z
	 M466.235,507.773c-0.121,0.406-0.493,0.682-0.916,0.682c-2.188,0-8.835,0-11.515,0c-0.283,0-0.55-0.125-0.732-0.341
	c-0.182-0.217-0.259-0.501-0.21-0.78c0.004-0.023,0.008-0.046,0.012-0.07c0.08-0.457,0.477-0.791,0.942-0.791
	c2.271,0,8.751,0,11.524,0c0.303,0,0.586,0.143,0.767,0.385c0.181,0.243,0.236,0.556,0.149,0.846
	C466.249,507.727,466.242,507.75,466.235,507.773z M87.045,480.426H60.007v27.038L87.045,480.426z M188.685,199.94h-67.807
	c-0.991,0-1.982,0.198-2.86,0.566c-0.906,0.368-1.755,0.934-2.435,1.642c-0.707,0.707-1.273,1.528-1.642,2.406
	c-0.368,0.906-0.566,1.897-0.566,2.887V498.97c0,0.991,0.199,1.982,0.566,2.86c0.369,0.906,0.935,1.727,1.642,2.435l0.029,0.056
	c0.707,0.68,1.5,1.217,2.378,1.557c0.906,0.397,1.897,0.595,2.887,0.595h46.573l4.87-21.404h-0.651c-0.566,0-1.02-0.453-1.02-0.991
	v-21.092h-37.881c-2.634,0-5.012-1.077-6.71-2.775c-1.728-1.727-2.804-4.106-2.804-6.71V221.088c0-2.633,1.076-5.011,2.804-6.71
	c1.698-1.727,4.076-2.803,6.71-2.803h55.916V199.94H188.685z M505.072,506.474h1.076l-0.736-4.898L505.072,506.474z
	 M184.382,492.431h-0.141c-0.256,0-0.51,0.085-0.68,0.227c-0.198,0.141-0.34,0.368-0.397,0.622l-2.746,13.194h5.549l-0.481-13.024
	c-0.029-0.283-0.142-0.537-0.34-0.736C184.948,492.544,184.693,492.431,184.382,492.431z M329.934,469.045
	c4.503,0,8.579,1.84,11.523,4.784s4.757,6.993,4.757,11.495s-1.813,8.551-4.757,11.523c-2.944,2.944-7.02,4.756-11.523,4.756
	c-4.473,0-8.55-1.812-11.494-4.756c-2.944-2.972-4.785-7.021-4.785-11.523s1.841-8.551,4.785-11.495
	S325.461,469.045,329.934,469.045z M340.041,475.217c-2.576-2.576-6.144-4.162-10.108-4.162c-3.935,0-7.502,1.586-10.079,4.162
	c-2.605,2.605-4.19,6.172-4.19,10.108s1.585,7.503,4.19,10.108c2.577,2.576,6.144,4.162,10.079,4.162
	c3.964,0,7.532-1.586,10.108-4.162c2.577-2.605,4.19-6.172,4.19-10.108S342.618,477.822,340.041,475.217z M539.018,491.582
	l-23.499-24.66l-0.028-0.029l-0.028-0.028l-1.245-1.302l-4.559,7.87l24.319,23.188L539.018,491.582z M499.07,476.519
	c-1.358-0.792-3.822-3.114-5.492-4.728v15.487h21.631v-5.776l-6.71-6.426c-0.369,0.396-0.765,0.736-1.19,1.047
	c-0.736,0.538-1.557,0.935-2.435,1.162c-0.991,0.255-1.982,0.311-2.972,0.198c-0.963-0.142-1.897-0.453-2.775-0.934L499.07,476.519z
	 M180.871,440.818c-3.17,0.51-7.049-1.161-9.4-3.057l-0.113-0.085l-0.085-0.085c-0.227-0.17-0.424-0.34-0.623-0.538
	c-0.397-0.368-0.764-0.764-1.133-1.161l-0.085-0.085c-1.047-1.217-1.925-2.633-2.576-4.105l-2.662,2.066
	c-0.028,0.057-0.085,0.085-0.113,0.085l-0.935,0.736l9.315,14.552c0.114,0.17,0.199,0.369,0.199,0.594v33.295l26.245-1.105
	l-0.708-19.818v-0.17l-0.424-12.146c0-0.142,0.029-0.283,0.085-0.424l8.211-19.904l-0.906-0.707c0,0-0.029-0.029-0.057-0.029
	l-5.776-4.501l-0.028-0.028l-0.312-0.255l-5.861,8.494c-0.226,0.537-0.509,1.076-0.792,1.557l-0.057,0.057v0.056l-0.028,0.029
	c-1.841,2.944-4.842,5.181-9.287,6.284c-0.651,0.171-1.359,0.284-2.066,0.397h-0.028V440.818z M60.007,478.416h27.038
	l-27.038-27.037C60.007,451.379,60.007,478.416,60.007,478.416z M88.461,449.962H61.423L88.461,477V449.962z M515.264,446.424
	h-0.056c-0.426,0-0.85,0.028-1.247,0.142h-0.085v0.028h-0.056c-0.566,0.142-1.133,0.424-1.586,0.793
	c-0.481,0.368-0.877,0.821-1.189,1.33l-4.162,7.248l-0.029,0.028l-5.889,10.221c-0.17,0.255-0.424,0.453-0.792,0.481
	c-0.312,0.028-0.566-0.085-0.793-0.283l-11.806-11.268l-0.341,1.217c-0.424,1.415-0.452,2.888-0.141,4.303
	c0.085,0.312,0.17,0.623,0.283,0.935v0.056c0.142,0.369,0.284,0.708,0.481,1.076v0.029c1.19,2.236,3.822,4.332,5.35,5.861h0.029
	v0.028h0.028v0.028h0.028v0.029h0.029v0.028c2.633,2.576,5.69,5.464,6.738,6.059c1.954,1.133,4.446,0.991,6.257-0.424
	c0.198-0.142,0.397-0.312,0.594-0.509c0.369-0.369,0.566-0.651,0.821-1.077l5.153-8.918l0.085-0.17l0.17-0.283l0.029-0.029
	l1.925-3.34l3.879-6.739c0.312-0.537,0.509-1.104,0.594-1.699c0.057-0.566,0.028-1.189-0.113-1.783
	c-0.17-0.566-0.453-1.133-0.793-1.586c-0.369-0.481-0.821-0.878-1.359-1.189c-0.397-0.227-0.792-0.397-1.218-0.481
	c-0.056-0.029-0.085-0.029-0.141-0.029c-0.199-0.056-0.425-0.085-0.623-0.085h-0.057v-0.028H515.264z M472.797,438.242l-0.029,0.028
	l27.095,25.849l4.898-8.493l-6.455-6.767l-1.359-1.416l-0.028-0.028l-17.299-18.12c-0.028-0.028-0.057-0.056-0.085-0.113
	l-0.509-0.538l-3.398,3.37c-0.113,0.877-0.537,2.236-1.104,3.511l-0.085,0.141l-0.029,0.085l-0.056,0.142l-0.057,0.085l-0.028,0.057
	l-0.029,0.085l-0.028,0.057l-0.057,0.085l-0.028,0.056l-0.028,0.085l-0.057,0.057v0.028l-0.028,0.057v0.028l-0.029,0.029
	l-0.028,0.028v0.028l-0.028,0.029l-0.029,0.028v0.057l-0.028,0.028l-0.029,0.028v0.029l-0.056,0.057v0.028l-0.029,0.028
	l-0.028,0.029v0.056l-0.057,0.057v0.028l-0.056,0.057l-0.029,0.057l-0.028,0.028v0.028l-0.028,0.029l-0.029,0.028l-0.028,0.028
	v0.029l-0.057,0.056v0.029l-0.056,0.056l-0.029,0.029v0.028l-0.028,0.029l-0.028,0.028v0.028l-0.029,0.029l-0.028,0.028
	l-0.028,0.028v0.029l-0.029,0.028l-0.057,0.028v0.057h-0.028l-0.057,0.057v0.028l-0.028,0.028l-0.028,0.029l-0.029,0.028
	l-0.028,0.028l-0.028,0.029l-0.029,0.028v0.028h-0.028v0.029h-0.026V438.242z M217.847,460.976v-70.553l-10.759,2.887l0.199,1.472
	c0.141,1.105,0.17,2.18,0.056,3.284c-0.085,1.02-0.283,2.039-0.594,3.029v26.359l1.161,0.906c0.369,0.312,0.481,0.821,0.284,1.245
	l-8.438,20.328l0.397,11.042h17.694V460.976z M534.629,230.941H219.856v138.502l23.075-6.172v-95.553
	c0-0.537,0.452-0.991,0.991-0.991h266.246c0.538,0,0.991,0.453,0.991,0.991v96.318c0,0.537-0.452,0.991-0.991,0.991H245.225
	l3.341,12.457h70.553c0.538,0,0.991,0.453,0.991,0.991c0,0.566-0.452,0.992-0.991,0.992h-70.016l0.396,1.443
	c0.142,0.538-0.198,1.076-0.708,1.218l-25.083,6.739h-0.029l-3.822,1.019v71.091h265.255c-0.34-1.67-0.283-3.454,0.199-5.181
	l0.651-2.18l-1.19-1.161c-0.679,0.537-1.443,0.991-2.265,1.33c-1.076,0.453-2.264,0.708-3.482,0.708
	c-1.19,0-2.378-0.255-3.483-0.708c-1.104-0.453-2.123-1.133-2.972-1.982l-4.304-4.304c-1.84-1.812-3.312-3.935-4.388-6.256v6.738
	c0,0.538-0.425,0.991-0.992,0.991h-29.869c-0.538,0-0.991-0.452-0.991-0.991v-29.87c0-0.565,0.452-0.991,0.991-0.991h14.665
	l-7.276-6.937c-26.217-8.465-20.838-34.993-20.611-36.097c0.057-0.34,0.312-0.623,0.651-0.765c0.509-0.198,1.076,0.057,1.274,0.595
	c0.962,2.491,5.209,3.312,10.079,4.275c3.85,0.736,8.04,1.557,11.665,3.369c7.87,3.992,9.06,14.439,9.201,16.563l26.642,27.944
	v-7.956c0-0.565,0.453-0.991,0.991-0.991h15.714l6.625-10.872c-6.257-10.333,2.066-15.486,2.094-15.515
	c0.227-0.141,0.51-0.198,0.793-0.113c19.281,5.011,25.651,25.708,25.679,25.764c0.029,0.142,0.057,0.312,0.029,0.481
	c-1.472,7.418-8.352,10.759-10.759,11.722c0.028,0.255,0.028,0.509,0,0.764c-0.057,0.566-0.227,1.105-0.537,1.614v0.028
	c-0.312,0.538-0.737,0.991-1.218,1.359l-0.057,0.056c-0.481,0.341-1.048,0.595-1.642,0.708c-0.594,0.142-1.245,0.142-1.841,0
	c-0.424-0.085-0.821-0.255-1.218-0.452v9.739h2.237c0.566,0,1.019,0.424,1.019,0.991v1.415c0.369,0.142,0.736,0.312,1.076,0.509
	h0.029c0.736,0.453,1.387,1.02,1.925,1.699c0.51,0.68,0.906,1.444,1.133,2.293c0.227,0.85,0.255,1.699,0.17,2.548
	c-0.113,0.85-0.397,1.699-0.849,2.435l-3.483,6.088v0.594h9.91c2.067,0,3.935-0.821,5.294-2.18c1.359-1.358,2.208-3.227,2.208-5.294
	L534.629,230.941L534.629,230.941z M188.685,230.941h-63.419v222.561c0,2.066,0.849,3.935,2.208,5.294
	c1.33,1.359,3.227,2.18,5.295,2.18h37.881v-10.957l-9.654-15.119c-0.283-0.453-0.17-1.02,0.227-1.33l1.104-0.878l-9.173-24.887
	l-0.028-0.056l-9.513,2.576c-0.509,0.142-1.076-0.198-1.217-0.707l-4.587-17.157c-0.141-0.538,0.17-1.077,0.708-1.217l43.601-11.693
	h-38.76c-0.537,0-0.991-0.425-0.991-0.992c0-0.537,0.453-0.991,0.991-0.991h46.206l28.284-7.588V230.94h-27.151v16.506h8.691
	c0.538,0,0.991,0.453,0.991,1.02v44.109c2.86,5.578,3.708,12.146,1.982,18.658c-0.141,0.537-0.679,0.849-1.218,0.707l-24.15-6.483
	h-33.635c-0.537,0-0.991-0.453-0.991-0.991v-56.001c0-0.566,0.453-1.02,0.991-1.02h45.328L188.685,230.941L188.685,230.941z
	 M515.208,444.385h-1.983l-9.739,3.313c-0.113,0.028-0.255,0.056-0.368,0.056c-0.566,0-1.02-0.425-1.02-0.991v-1.5h-0.028v0.028
	h-0.028c-0.199,0.085-0.397,0.142-0.566,0.227l-0.029,0.028h-0.028c-0.793,0.369-1.585,0.793-2.293,1.302l6.313,6.625l0.369,0.369
	l3.511-6.116c0.452-0.764,1.019-1.415,1.698-1.926c0.68-0.537,1.444-0.906,2.293-1.133h0.029l0.028-0.028h0.085l0.029-0.028h0.085
	l0.028-0.029h0.113v-0.028h0.142l0.028-0.028h0.142c0.255-0.057,0.509-0.085,0.764-0.085h0.426v-0.056H515.208z M464.454,436.89
	c-0.003-0.012-0.007-0.024-0.01-0.036v0.028L464.454,436.89c0.168,0.666,0.363,1.306,0.585,1.946
	c0.991,2.69,2.576,5.181,4.643,7.248l4.303,4.303c0.68,0.68,1.444,1.19,2.322,1.557c0.849,0.341,1.755,0.538,2.718,0.538
	c0.963,0,1.869-0.198,2.746-0.538c0.538-0.226,1.048-0.509,1.529-0.877l-12.542-11.976
	C468.469,439.063,466.208,438.441,464.454,436.89z M368.354,448.972h-29.87c-0.566,0-0.991-0.452-0.991-0.991v-29.87
	c0-0.565,0.424-0.991,0.991-0.991h29.87c0.537,0,0.991,0.425,0.991,0.991v29.87C369.345,448.519,368.891,448.972,368.354,448.972z
	 M415.606,448.972h-29.841c-0.566,0-1.02-0.452-1.02-0.991v-29.87c0-0.565,0.453-0.991,1.02-0.991h29.841
	c0.566,0,1.019,0.425,1.019,0.991v29.87C416.625,448.519,416.173,448.972,415.606,448.972z M273.791,448.972h-29.869
	c-0.538,0-0.991-0.452-0.991-0.991v-29.87c0-0.565,0.452-0.991,0.991-0.991h29.869c0.538,0,0.992,0.425,0.992,0.991v29.87
	C274.783,448.519,274.329,448.972,273.791,448.972z M321.072,448.972h-29.87c-0.537,0-0.991-0.452-0.991-0.991v-29.87
	c0-0.565,0.453-0.991,0.991-0.991h29.87c0.538,0,0.991,0.425,0.991,0.991v29.87C322.063,448.519,321.611,448.972,321.072,448.972z
	 M61.423,447.981h27.038v-27.038L61.423,447.981z M272.8,419.103h-27.859v27.859H272.8V419.103z M449.779,419.103h-15.742v27.859
	h27.859v-13.421l-0.028-0.028v-0.142c-0.028-0.481-0.057-0.963-0.057-1.443c0-0.369,0.029-0.765,0.029-1.133l0.028-0.029v-0.141
	l-8.126-7.758L449.779,419.103z M414.615,419.103h-27.859v27.859h27.859V419.103z M367.334,419.103h-27.859v27.859h27.859V419.103z
	 M320.054,419.103h-27.859v27.859h27.859V419.103z M87.045,419.527H60.007v27.038L87.045,419.527z M494.767,419.103h-13.449v9.059
	l16.449,17.242c1.331-0.962,2.69-1.698,4.276-2.236h0.028l0.028-0.028v-6.088l-6.087-5.096c-1.727-1.444-2.804-3.426-3.143-5.521
	c-0.34-2.094,0.057-4.303,1.217-6.2L494.767,419.103z M515.264,424.453l0.029-0.028l3.652-8.918
	c-5.549,0.056-10.673-2.208-14.326-6.512l-0.028-0.028c-0.085-0.085-0.142-0.171-0.227-0.284l-0.028-0.028
	c-0.057-0.085-0.142-0.17-0.227-0.255v-0.029c-0.085-0.113-0.17-0.198-0.227-0.312l-6.455,10.561l-1.642,2.633
	c-0.906,1.5-1.217,3.227-0.934,4.87c0.255,1.642,1.104,3.17,2.463,4.303l6.37,5.352c0.255,0.17,0.424,0.481,0.424,0.792v8.805
	l7.87-2.661V430.71c0-0.227,0.057-0.425,0.199-0.595c0.34-0.452,0.962-0.537,1.387-0.198l1.104,0.821
	c0.284,0.227,0.594,0.368,0.934,0.424c0.341,0.085,0.68,0.085,1.02,0c0.312-0.057,0.623-0.198,0.878-0.368l0.028-0.029
	c0.284-0.198,0.509-0.481,0.679-0.764c0.142-0.283,0.255-0.566,0.284-0.878c0.028-0.255,0-0.537-0.057-0.792
	c-0.028-0.057-0.057-0.114-0.057-0.199c-0.085-0.227-0.17-0.424-0.311-0.594c-0.142-0.199-0.312-0.369-0.51-0.509l-1.897-1.416
	c-0.198-0.113-0.312-0.283-0.397-0.481v-0.056l-0.028-0.029v-0.113l-0.028-0.028v-0.227l0.028-0.028v-0.114h0.028v-0.084H515.264z
	 M179.513,438.893l0.028,0.028h0.708l0.056-0.028h0.142l0.028-0.029h0.171l0.028-0.028h0.028c0.623-0.085,1.218-0.227,1.784-0.368
	c4.134-1.02,7.248-3.2,8.862-6.909c0.028,0,0.028-0.028,0.028-0.057c1.33-3.029,1.529-6.766,1.019-10.815
	c-0.198-1.444-0.481-2.916-0.877-4.445c-1.387-5.606-2.86-9.174-4.502-11.353c-1.529-2.011-3.171-2.804-5.012-2.916
	c-1.443-0.085-1.812,0.566-2.463,1.614c-0.934,1.585-2.265,3.793-6.342,6.087c-6.54,3.625-6.03,11.608-5.378,18.007
	c0.056,0.452,0.141,0.906,0.255,1.358v0.085h0.028c0.057,0.227,0.113,0.424,0.17,0.651c0.538,1.671,1.444,3.313,2.69,4.728
	c0.227,0.284,0.453,0.509,0.708,0.764c0.424,0.397,0.566,0.481,0.991,0.878l1.076,0.793l0.113,0.085
	c0.142,0.113,0.312,0.198,0.453,0.283l0.057,0.029l0.056,0.056h0.029l0.113,0.057c0.142,0.085,0.312,0.17,0.481,0.255
	c0.085,0.057,0.17,0.085,0.255,0.114c0.113,0.056,0.255,0.113,0.369,0.17l0.141,0.056l0.029,0.029l0.085,0.028l0.141,0.057
	l0.341,0.113l0.113,0.057l0.085,0.028h0.028l0.085,0.029l0.142,0.056l0.114,0.029h0.056l0.114,0.028l0.226,0.085h0.057l0.113,0.028
	h0.029l0.227,0.057h0.028l0.085,0.028l0.113,0.029h0.085l0.057,0.028h0.113l0.114,0.028l0.142,0.029h0.113l0.028,0.028h0.142
	l0.085,0.028h0.227l0.142,0.029h0.248V438.893z M466.993,426.039h-0.142c-1.472,0.086-2.718,3.596-2.972,4.332
	c0.056,2.407,0.849,4.503,2.803,5.691h0.028c0.029,0.028,0.085,0.057,0.142,0.085l0.057,0.057l0.17,0.057l0.085,0.056l0.226,0.114
	l0.142,0.056l0.34,0.114l0.057,0.028l0.34,0.113l0.057,0.029l0.17,0.028l0.057,0.028h0.028l0.057,0.029h0.085l0.085,0.028
	l0.056,0.029h0.086l0.085,0.028h0.056l0.085,0.028h0.057l0.085,0.029h0.142l0.056,0.028h0.142l0.085,0.028h0.199l0.056,0.029h0.312
	l0.057,0.028h0.821v-0.028h0.057l0.056-0.057h0.029v-0.028h0.028v-0.029l0.028-0.028l0.085-0.085v-0.029h0.029l0.028-0.028v-0.028
	l0.028-0.029l0.029-0.028v-0.028h0.028v-0.029l0.028-0.028l0.029-0.028v-0.029h0.028v-0.028l0.028-0.028v-0.029l0.029-0.028v-0.028
	h0.028v-0.029h0.029v-0.028l0.028-0.028v-0.029l0.028-0.028v-0.028l0.057-0.057v-0.028h0.028v-0.057l0.029-0.029l0.028-0.028v-0.028
	h0.028v-0.057l0.029-0.028l0.028-0.029v-0.028l0.028-0.028v-0.029l0.029-0.028l0.028-0.057l0.028-0.028v-0.028l0.029-0.057
	l0.028-0.028l0.028-0.057v-0.028l0.057-0.057v-0.028l0.028-0.057l0.029-0.057l0.056-0.085l0.029-0.057l0.057-0.141l0.028-0.085
	l0.057-0.057l0.085-0.227c0.566-1.245,0.962-2.52,0.962-3.114v-0.113l-0.028-0.029v-0.028l-0.028-0.028v-0.029l-0.029-0.028v-0.028
	l-0.028-0.057v-0.028l-0.028-0.029l-0.029-0.057l-0.028-0.028l-0.028-0.057l-0.029-0.028l-0.028-0.057l-0.028-0.028l-0.029-0.057
	l-0.028-0.056l-0.085-0.085l-0.028-0.057l-0.029-0.028l-0.057-0.057C471.806,428.955,468.635,426.209,466.993,426.039z
	 M154.371,405.966v0.028l0.028,0.029v0.028c0.029,0.028,0.057,0.057,0.085,0.113c0.114,0.199,0.256,0.397,0.397,0.623
	c0.057,0.057,0.085,0.142,0.114,0.227l9.003,24.404l2.18-1.727v-0.057c-0.425-1.585-0.595-4.642-0.68-6.284l-6.823-17.327
	c-0.085-0.256-0.085-0.538,0.028-0.793l1.585-3.822c0.114-0.283,0.142-0.566,0.142-0.849v-0.085h-0.028v-0.085
	c-0.114-0.821-1.161-2.293-1.359-2.634c-0.227-0.396-0.566-0.679-0.963-0.821c-0.396-0.17-0.821-0.198-1.245-0.056l-2.944,0.877
	l-0.057,0.029c-0.906,0.255-1.5,1.161-1.33,2.151c0.114,0.708,0.227,1.444,0.369,2.18l0.028,0.028
	c0.113,0.594,0.284,1.19,0.481,1.756c0.227,0.565,0.481,1.132,0.764,1.67v0.028h0.029v0.057l0.056,0.057v0.056h0.029v0.029
	l0.028,0.028v0.028l0.057,0.057v0.057L154.371,405.966L154.371,405.966z M450.882,417.375l7.22,6.909l4.389,4.19
	c0.707-1.613,2.094-4.02,3.991-4.388h0.142c0.028-0.029,0.085-0.029,0.114-0.029h0.452c2.378,0.227,6.172,3.426,7.758,5.804
	l2.69-2.661l-25.962-27.237l-9.315,9.315l8.494,8.097H450.882z M182.173,399.992c2.378,0.141,4.502,1.161,6.427,3.708
	c1.812,2.378,3.397,6.2,4.87,12.061c0.368,1.585,0.679,3.142,0.877,4.671c0.312,2.265,0.397,4.445,0.199,6.483l3.397-4.954
	c0.227-0.341,0.623-0.481,1.02-0.426v-20.214l-2.435-3.001c-0.369-0.452-0.651-0.991-0.764-1.585
	c-0.014-0.053-0.027-0.113-0.04-0.172l-0.006-0.024c-0.013-0.06-0.026-0.119-0.039-0.173L182.173,399.992z M518.889,413.525h0.509
	l0.142-0.028h0.255l0.113-0.028h0.17l0.085-0.029h0.17c0.538-0.085,1.048,0.284,1.133,0.821c0.029,0.227,0,0.425-0.085,0.595
	l-3.935,9.54c0.679,0.453,1.245,0.878,1.67,1.331l0.057,0.056c0.312,0.312,0.538,0.595,0.736,0.906
	c2.18-0.906,7.956-3.793,9.315-9.966c-0.764-2.236-7.077-19.45-23.754-24.065c-1.33,1.019-5.804,5.295-0.821,13.052
	C507.875,410.722,512.943,413.582,518.889,413.525z M203.21,391.753h-3.143c-0.424,0-0.849,0.142-1.189,0.397
	c-0.312,0.255-0.566,0.622-0.68,1.076l-0.509,2.208c-0.057,0.283-0.057,0.594,0,0.878c0.057,0.283,0.199,0.537,0.397,0.764
	l2.577,3.199c0.17,0.17,0.283,0.424,0.283,0.68v21.998l3.822,2.972v-24.971c0-0.086,0-0.199,0.028-0.284
	c0.312-0.906,0.481-1.84,0.566-2.775c0.085-0.963,0.085-1.897-0.057-2.832l-0.198-1.67c-0.028-0.142-0.057-0.255-0.113-0.397
	l-0.029-0.057c-0.142-0.34-0.368-0.65-0.679-0.877C203.946,391.866,203.606,391.753,203.21,391.753z M165.639,418.282
	c0.509-3.992,2.151-7.899,6.597-10.362c3.624-2.011,4.784-3.964,5.605-5.351c0.424-0.707,0.793-1.33,1.274-1.755l-18.403,4.926
	L165.639,418.282z M60.007,417.517h27.038l-27.038-27.038C60.007,390.479,60.007,417.517,60.007,417.517z M88.461,389.092H61.423
	l27.038,27.038V389.092z M204.738,390.054c0.227,0.114,0.453,0.227,0.651,0.369c0.396,0.283,0.736,0.622,1.02,0.991l12.117-3.228
	c0.057-0.028,0.085-0.028,0.114-0.028l3.567-0.963l-4.077-15.231l-28.114,7.559c-0.056,0-0.085,0-0.113,0.029l-49.914,13.363
	l4.077,15.204l8.04-2.151l-0.113-0.199v-0.028c-0.17-0.368-0.34-0.764-0.481-1.133c-0.198-0.594-0.368-1.161-0.509-1.784
	l-0.029-0.028v-0.113l-0.028-0.085v-0.029l-0.028-0.028v-0.113l-0.029-0.029v-0.113l-0.028-0.057v-0.085l-0.028-0.057v-0.113
	l-0.029-0.057v-0.028l-0.255-1.642c-0.17-0.963,0.029-1.926,0.51-2.718c0.509-0.765,1.273-1.387,2.208-1.671l2.915-0.878
	l0.057-0.028c0.227-0.057,0.452-0.113,0.651-0.142h0.368l0.142-0.028h0.028c1.359,0.028,2.634,0.764,3.341,1.982
	c0.595,1.02,1.416,2.123,1.614,3.341v0.142l0.028,0.028v0.114c0.085,1.132-0.368,1.982-0.821,3.029l34.343-9.174l0.34-1.472
	c0.198-0.877,0.707-1.642,1.358-2.179c0.68-0.538,1.529-0.85,2.435-0.85h3.114c0.538,0,1.048,0.114,1.529,0.312L204.738,390.054
	L204.738,390.054z M431.942,380.258c0.594,10.165-6.399,9.824-9.711,9.088c1.869,7.078,6.682,14.836,18.233,18.743l10.193-10.193
	c-0.227-2.491-1.501-11.211-8.097-14.552C439.359,381.73,435.509,380.938,431.942,380.258z M415.606,396.793H243.922
	c-0.538,0-0.991-0.453-0.991-0.992c0-0.565,0.452-1.019,0.991-1.019h171.684c0.566,0,1.019,0.453,1.019,1.019
	C416.625,396.34,416.173,396.793,415.606,396.793z M421.75,387.167c1.982,0.566,8.861,1.954,8.154-7.305
	c-3.511-0.707-6.597-1.472-8.494-3.085C421.155,379.098,420.957,382.891,421.75,387.167z M61.423,387.082h27.038v-27.038
	L61.423,387.082z M220.055,371.454l4.077,15.231l23.159-6.228l-4.077-15.204L220.055,371.454z M87.045,358.629H60.007v27.037
	L87.045,358.629z M233.673,379.324c-1.132,0.312-2.321,0.113-3.284-0.424c-0.962-0.566-1.698-1.501-2.01-2.662
	c-0.312-1.161-0.114-2.321,0.424-3.284l0.028-0.057c0.566-0.934,1.472-1.67,2.605-1.982c1.161-0.284,2.35-0.113,3.313,0.452
	c0.962,0.566,1.698,1.472,2.01,2.634c0.255,0.934,0.199,1.869-0.141,2.69l3.708,2.151c0.481,0.283,0.651,0.878,0.368,1.359
	c-0.255,0.48-0.877,0.651-1.358,0.368l-3.85-2.236c-0.481,0.452-1.105,0.821-1.784,0.991L233.673,379.324L233.673,379.324z
	 M233.759,373.096c-0.538-0.312-1.162-0.397-1.813-0.227c-0.594,0.142-1.076,0.537-1.387,1.048l-0.028,0.028
	c-0.283,0.509-0.397,1.133-0.255,1.755l0.028,0.086c0.17,0.594,0.595,1.076,1.105,1.386c0.481,0.284,1.104,0.397,1.727,0.227h0.085
	c0.538-0.17,0.963-0.481,1.245-0.906h0.029c0.028-0.057,0.056-0.085,0.085-0.142l0.028-0.056c0.312-0.509,0.396-1.161,0.227-1.784
	C234.664,373.888,234.268,373.379,233.759,373.096z M509.177,353.815l-85.587-42.186l-41.365,19.847l57.219,31.54h69.732v-9.201
	H509.177z M435.311,363.016l-96.912-53.424l-93.458,32.643v20.781H435.311z M199.387,361.035h-56.03
	c-0.537,0-0.991-0.453-0.991-0.991c0-0.566,0.453-0.991,0.991-0.991h56.03c0.538,0,0.991,0.424,0.991,0.991
	C200.378,360.581,199.926,361.035,199.387,361.035z M60.007,356.646h27.038l-27.038-27.038
	C60.007,329.608,60.007,356.646,60.007,356.646z M88.461,328.193H61.423l27.038,27.038V328.193z M509.177,268.709H244.941v71.403
	l93.204-32.53c0.283-0.113,0.566-0.085,0.821,0.057l41.109,22.677l43.091-20.696c0.284-0.114,0.595-0.114,0.878,0.028l85.134,41.959
	v-82.898H509.177z M199.387,342.518h-56.03c-0.537,0-0.991-0.452-0.991-0.991c0-0.566,0.453-1.019,0.991-1.019h56.03
	c0.538,0,0.991,0.452,0.991,1.019C200.378,342.066,199.926,342.518,199.387,342.518z M61.423,326.183h27.038v-27.038L61.423,326.183
	z M547.255,325.52c-0.431-0.11-0.734-0.498-0.734-0.944c0-0.958,0-2.611,0-3.71c0-0.283,0.121-0.552,0.332-0.741
	c0.211-0.19,0.492-0.28,0.774-0.248h0.001c0.498,0.055,0.875,0.476,0.875,0.978c0,0.98,0,2.574,0,3.697
	c0,0.309-0.143,0.599-0.385,0.789c-0.244,0.19-0.561,0.256-0.86,0.18C547.256,325.52,547.256,325.52,547.255,325.52z
	 M87.045,297.729H60.007v27.038L87.045,297.729z M199.387,324.003h-56.03c-0.537,0-0.991-0.453-0.991-1.02
	c0-0.537,0.453-0.991,0.991-0.991h56.03c0.538,0,0.991,0.453,0.991,0.991C200.378,323.549,199.926,324.003,199.387,324.003z
	 M546.521,310.995c0-0.277,0.115-0.54,0.318-0.728s0.474-0.283,0.749-0.262c0.001,0,0.001,0,0.001,0
	c0.515,0.04,0.914,0.469,0.914,0.987c0,1.569,0,4.762,0,6.467c0,0.285-0.122,0.556-0.336,0.745s-0.498,0.278-0.781,0.243h-0.001
	c-0.493-0.06-0.864-0.479-0.864-0.977C546.521,315.917,546.521,312.68,546.521,310.995z M380.047,284.649
	c3.511,0,6.681,1.416,9.003,3.71c2.293,2.293,3.708,5.492,3.708,9.003s-1.415,6.682-3.708,8.975
	c-2.322,2.293-5.492,3.736-9.003,3.736s-6.682-1.443-8.975-3.736s-3.737-5.464-3.737-8.975c0-3.511,1.444-6.71,3.737-9.003
	l0.057-0.057C373.422,286.036,376.564,284.649,380.047,284.649z M154.088,297.276l23.159,6.2l7.446,1.982l15.969,4.275
	c0.849-3.708,0.764-7.474-0.086-10.957c-0.056-0.283-0.113-0.537-0.198-0.736c-0.878-2.52-1.982-4.983-1.982-4.983
	c-0.114-0.198-0.227-0.397-0.34-0.622l-0.029-0.029c-3.114-5.35-8.239-9.541-14.665-11.239c-6.427-1.727-12.967-0.68-18.318,2.406
	C159.977,286.489,155.956,291.274,154.088,297.276z M387.634,289.773c-1.954-1.926-4.615-3.142-7.588-3.142
	c-2.916,0-5.578,1.189-7.531,3.085l-0.029,0.057c-1.954,1.954-3.142,4.614-3.142,7.588c0,2.944,1.189,5.634,3.142,7.559
	c1.926,1.954,4.615,3.143,7.56,3.143c2.972,0,5.634-1.19,7.588-3.143c1.925-1.925,3.142-4.614,3.142-7.559
	C390.776,294.388,389.559,291.727,387.634,289.773z M188.685,249.457h-44.308v54.019h25.169l-16.959-4.558
	c-0.537-0.142-0.849-0.679-0.707-1.218c1.868-6.965,6.37-12.514,12.174-15.855c4.19-2.435,9.059-3.681,14.042-3.483
	c-1.104-0.962-2.01-2.123-2.746-3.369c-1.699-2.916-2.265-6.483-1.331-10.023c0.963-3.51,3.228-6.313,6.172-8.012
	c2.492-1.443,5.492-2.066,8.494-1.642L188.685,249.457L188.685,249.457z M60.007,295.747h27.038l-27.038-27.038
	C60.007,268.709,60.007,295.747,60.007,295.747z M88.461,267.294H61.423l27.038,27.038V267.294z M189.309,281.365
	c3.681,1.926,6.766,4.671,9.088,7.927v-14.58c-1.19,2.179-2.944,3.935-5.012,5.124C192.139,280.544,190.752,281.082,189.309,281.365
	z M196.5,262.792c-1.444-2.492-3.822-4.417-6.824-5.21v-0.028c-2.972-0.793-6.031-0.312-8.494,1.133
	c-2.491,1.443-4.417,3.821-5.238,6.795c-0.793,3-0.312,6.031,1.133,8.522c1.415,2.491,3.822,4.417,6.795,5.21
	c3.001,0.821,6.031,0.34,8.522-1.105c2.492-1.443,4.417-3.822,5.21-6.795C198.425,268.312,197.915,265.283,196.5,262.792z
	 M61.423,265.283h27.038v-27.038L61.423,265.283z M87.045,236.858H60.007v27.038L87.045,236.858z M198.397,249.457h-7.701v6.313
	c3.284,1.019,5.917,3.227,7.531,6.031c0.056,0.085,0.113,0.198,0.17,0.311V249.457z M403.687,249.457h-23.64
	c-0.538,0-0.991-0.453-0.991-0.991c0-0.566,0.452-1.02,0.991-1.02h23.64c0.566,0,0.991,0.453,0.991,1.02
	C404.678,249.004,404.253,249.457,403.687,249.457z M510.168,249.457h-23.64c-0.538,0-0.991-0.453-0.991-0.991
	c0-0.566,0.452-1.02,0.991-1.02h23.64c0.538,0,0.991,0.453,0.991,1.02C511.159,249.004,510.707,249.457,510.168,249.457z
	 M439.19,249.457h-23.64c-0.566,0-0.991-0.453-0.991-0.991c0-0.566,0.424-1.02,0.991-1.02h23.64c0.538,0,0.992,0.453,0.992,1.02
	C440.181,249.004,439.728,249.457,439.19,249.457z M474.665,249.457h-23.641c-0.537,0-0.991-0.453-0.991-0.991
	c0-0.566,0.453-1.02,0.991-1.02h23.641c0.565,0,1.019,0.453,1.019,1.02C475.684,249.004,475.231,249.457,474.665,249.457z
	 M60.007,234.848h27.038L60.007,207.81V234.848z M88.461,206.395H61.423l27.038,27.038V206.395z M527.128,213.586H190.696v15.344
	H534.63v-7.842c0-2.066-0.849-3.963-2.208-5.294C531.063,214.435,529.194,213.586,527.128,213.586z M188.685,213.586h-55.916
	c-2.067,0-3.964,0.849-5.323,2.208c-1.331,1.33-2.18,3.227-2.18,5.294v7.842h63.419V213.586z M509.602,225.222
	c-0.934,0.963-2.265,1.557-3.708,1.557c-1.472,0-2.775-0.594-3.737-1.557l-0.057-0.057c-0.906-0.934-1.472-2.236-1.472-3.652
	c0-1.472,0.594-2.775,1.529-3.737c0.963-0.963,2.293-1.557,3.737-1.557c1.443,0,2.775,0.594,3.736,1.557
	c0.935,0.963,1.529,2.265,1.529,3.737c0,1.443-0.594,2.775-1.529,3.708h-0.028V225.222z M491.284,216.219
	c1.472,0,2.775,0.594,3.737,1.557c0.962,0.963,1.557,2.265,1.557,3.737c0,1.443-0.595,2.775-1.557,3.708
	c-0.963,0.963-2.265,1.557-3.737,1.557c-1.444,0-2.775-0.594-3.708-1.557l-0.057-0.057c-0.935-0.934-1.501-2.236-1.501-3.652
	c0-1.472,0.595-2.775,1.558-3.737C488.51,216.813,489.84,216.219,491.284,216.219z M520.474,216.219
	c1.472,0,2.775,0.594,3.737,1.557c0.963,0.963,1.557,2.265,1.557,3.737c0,1.443-0.594,2.775-1.557,3.708
	c-0.963,0.963-2.265,1.557-3.737,1.557c-1.444,0-2.775-0.594-3.708-1.557c-0.963-0.934-1.557-2.265-1.557-3.708
	c0-1.472,0.594-2.775,1.557-3.737C517.699,216.813,519.029,216.219,520.474,216.219z M493.605,219.191
	c-0.594-0.594-1.415-0.963-2.321-0.963s-1.699,0.369-2.293,0.963c-0.594,0.595-0.963,1.416-0.963,2.322
	c0,0.877,0.34,1.67,0.906,2.264l0.057,0.057c0.594,0.594,1.387,0.963,2.293,0.963s1.727-0.369,2.321-0.963
	c0.595-0.594,0.963-1.415,0.963-2.321S494.201,219.787,493.605,219.191z M522.795,219.191c-0.594-0.594-1.415-0.963-2.321-0.963
	s-1.699,0.369-2.293,0.963c-0.594,0.595-0.963,1.416-0.963,2.322s0.369,1.727,0.963,2.321s1.387,0.963,2.293,0.963
	s1.727-0.369,2.321-0.963c0.595-0.594,0.963-1.415,0.963-2.321S523.39,219.787,522.795,219.191z M508.215,219.191
	c-0.594-0.594-1.415-0.963-2.321-0.963s-1.727,0.369-2.322,0.963c-0.594,0.595-0.963,1.416-0.963,2.322
	c0,0.877,0.341,1.67,0.935,2.264l0.028,0.057c0.595,0.594,1.416,0.963,2.322,0.963s1.727-0.369,2.321-0.963
	c0.594-0.594,0.963-1.415,0.963-2.321S508.809,219.787,508.215,219.191z M61.423,204.412h27.038v-27.037L61.423,204.412z
	 M87.045,175.959H60.007v27.038L87.045,175.959z M398.138,182.923h-38.844l21.659,2.605l0.509,0.085h7.276
	c0.878,0,1.784,0.17,2.577,0.51c0.792,0.34,1.528,0.792,2.151,1.415l0.057,0.057c0.651,0.622,1.132,1.387,1.472,2.208
	c0.34,0.792,0.509,1.698,0.509,2.576c0,0.906-0.17,1.784-0.509,2.605c-0.341,0.793-0.821,1.557-1.472,2.18
	c-0.284,0.283-0.595,0.566-0.907,0.792h5.521c2.095,0,3.964-0.849,5.323-2.208c1.359-1.358,2.208-3.255,2.208-5.323
	c0-2.066-0.849-3.963-2.208-5.323C402.102,183.745,400.233,182.923,398.138,182.923z M380.414,187.482l-29.954-3.624
	c-0.992-0.113-2.011-0.028-2.944,0.255c-0.963,0.312-1.841,0.793-2.577,1.472c-0.764,0.651-1.359,1.472-1.755,2.378
	c-0.425,0.906-0.623,1.897-0.623,2.887c0,0.85,0.17,1.671,0.481,2.435c0.312,0.736,0.764,1.444,1.358,2.039
	c0.595,0.594,1.302,1.048,2.039,1.359c0.765,0.312,1.586,0.481,2.407,0.481h31.568V187.482z M388.738,187.596h-6.342v9.569h6.342
	c0.651,0,1.274-0.114,1.841-0.369c0.565-0.227,1.104-0.566,1.528-1.019c0.453-0.453,0.821-0.991,1.048-1.557s0.369-1.19,0.369-1.841
	s-0.142-1.273-0.369-1.84s-0.594-1.077-1.048-1.529l-0.028-0.057c-0.453-0.424-0.963-0.764-1.5-0.991
	C390.012,187.737,389.389,187.596,388.738,187.596z M349.667,145.495h-0.085c-0.424,0-0.821,0.085-1.19,0.256
	c-0.368,0.141-0.707,0.368-0.991,0.651c-0.312,0.311-0.537,0.65-0.679,1.019s-0.227,0.764-0.227,1.19v27.632
	c0,1.302,0.509,2.463,1.359,3.312c0.849,0.85,2.01,1.359,3.312,1.359h12.91l1.671-6.2h-12.061c-0.566,0-0.991-0.424-0.991-0.991
	V148.61c0-0.425-0.085-0.821-0.255-1.19c-0.142-0.369-0.369-0.708-0.651-1.019c-0.312-0.284-0.651-0.51-1.02-0.651v-0.029h-0.056
	l-0.029-0.028h-0.056l-0.029-0.028h-0.085v-0.029h-0.085v-0.028h-0.113v-0.029h-0.114v-0.028h-0.17l-0.028-0.028h-0.312
	L349.667,145.495z M405.357,154.47h-32.105l-5.239,19.479l-0.028,0.056v0.029l-1.84,6.88h32.134L405.357,154.47z M60.007,173.949
	h27.038l-27.038-27.038C60.007,146.911,60.007,173.949,60.007,173.949z M179.795,146.911l-27.038,27.038h27.038V146.911z
	 M147.944,173.949l-27.037-27.038v27.038H147.944z M57.997,146.911l-27.038,27.038h27.038V146.911z M118.896,146.911l-27.038,27.038
	h27.038V146.911z M189.28,145.495h-7.474v28.454h28.425v-7.475L189.28,145.495z M387.266,161.576c0.453,0,0.906,0.057,1.33,0.17
	c0.991,0.255,1.784,0.793,2.35,1.557c0.538,0.736,0.849,1.671,0.849,2.69c0,0.453-0.056,0.935-0.198,1.444
	c-0.397,1.5-1.359,2.832-2.577,3.793c-1.217,0.963-2.746,1.557-4.246,1.557c-0.453,0-0.907-0.056-1.331-0.17
	c-0.963-0.255-1.784-0.792-2.321-1.557h-0.029c-0.537-0.736-0.849-1.67-0.849-2.69c0-0.452,0.057-0.934,0.199-1.443
	c0.396-1.501,1.358-2.832,2.576-3.794C384.236,162.172,385.766,161.576,387.266,161.576z M360.936,145.495h-7.305v0.029l0.057,0.056
	v0.029h0.028v0.028l0.057,0.057v0.028h0.028v0.029l0.029,0.028v0.028h0.028v0.029l0.029,0.028v0.028h0.028v0.057h0.028v0.057h0.029
	v0.028H354v0.057h0.028v0.056h0.029v0.057h0.028v0.028h0.028v0.057h0.029v0.057l0.028,0.028v0.029l0.028,0.028v0.028l0.029,0.029
	v0.028l0.028,0.028v0.057l0.028,0.028v0.029c0.256,0.622,0.396,1.273,0.396,1.954v24.122h11.608l5.21-19.479
	c0.028-0.17,0.113-0.283,0.198-0.424l0.029-0.028l0.028-0.029l0.028-0.028l0.029-0.028l0.028-0.029h0.029v-0.028h0.028
	c0.17-0.142,0.368-0.198,0.566-0.198h3.596v-6.966h-5.407v2.067c0,0.622-0.114,1.273-0.369,1.84
	c-0.991,2.435-3.822,3.681-6.341,2.633C360.652,150.677,360.936,148.214,360.936,145.495z M56.61,145.495H29.572v27.038
	L56.61,145.495z M149.36,145.495h-27.038l27.038,27.038V145.495z M178.38,145.495h-27.038v27.038L178.38,145.495z M88.461,145.495
	H61.423l27.038,27.038V145.495z M117.481,145.495H90.443v27.038L117.481,145.495z M388.087,163.672
	c-0.255-0.085-0.538-0.114-0.821-0.114c-1.048,0-2.123,0.453-3.001,1.133c-0.906,0.708-1.613,1.671-1.897,2.747
	c-0.085,0.34-0.113,0.651-0.113,0.934c0,0.595,0.141,1.105,0.452,1.501c0.284,0.397,0.708,0.679,1.246,0.821
	c0.256,0.056,0.538,0.113,0.822,0.113c1.047,0,2.123-0.452,3.029-1.161c0.877-0.708,1.585-1.67,1.868-2.718
	c0.085-0.34,0.142-0.651,0.142-0.935c0-0.594-0.17-1.104-0.481-1.5C389.05,164.096,388.625,163.814,388.087,163.672z
	 M567.359,168.683H487.01c-0.538,0-0.992-0.452-0.992-0.991c0-7.955,3.228-15.176,8.466-20.413
	c5.21-5.209,12.429-8.437,20.384-8.437c5.21,0,10.108,1.359,14.327,3.793c4.048,2.322,7.474,5.578,9.994,9.513
	c1.359-0.935,2.859-1.671,4.474-2.208c1.869-0.623,3.878-0.963,5.974-0.963c5.153,0,9.853,2.095,13.25,5.464
	c3.369,3.397,5.464,8.069,5.464,13.25C568.349,168.23,567.925,168.683,567.359,168.683z M488.028,166.701h78.311
	c-0.255-4.219-2.066-8.04-4.869-10.844c-3.029-3.029-7.22-4.898-11.835-4.898c-1.869,0-3.68,0.312-5.352,0.878
	c-1.727,0.566-3.34,1.444-4.784,2.52l-0.085,0.085c-0.481,0.283-1.105,0.113-1.359-0.369c-2.378-4.02-5.775-7.389-9.852-9.71
	c-3.935-2.237-8.466-3.54-13.336-3.54c-7.417,0-14.127,3.001-18.969,7.871C491.256,153.337,488.283,159.68,488.028,166.701z
	 M334.407,160.727h-60.531c-1.245,0-2.491-0.255-3.624-0.708c-1.133-0.481-2.208-1.189-3.086-2.066
	c-0.877-0.878-1.585-1.926-2.066-3.086v-0.057c-0.481-1.132-0.708-2.349-0.708-3.567v-18.347c0-2.633,1.048-5.011,2.775-6.738
	c1.727-1.699,4.077-2.775,6.71-2.775h40.968c2.605,0,4.983,1.076,6.71,2.775c1.699,1.727,2.775,4.105,2.775,6.738v16.705
	l10.73,9.371c0.424,0.369,0.453,0.991,0.085,1.416C334.945,160.614,334.691,160.727,334.407,160.727z M314.844,125.393h-40.968
	c-2.066,0-3.935,0.822-5.294,2.18c-1.359,1.359-2.208,3.228-2.208,5.323v18.347c0,0.991,0.198,1.925,0.566,2.831v0.029
	c0.396,0.906,0.934,1.727,1.642,2.435c0.707,0.707,1.528,1.245,2.434,1.642c0.878,0.368,1.869,0.566,2.86,0.566h57.871l-9.004-7.899
	c-0.255-0.17-0.424-0.453-0.424-0.793v-17.157c0-2.094-0.821-3.963-2.179-5.323C318.779,126.215,316.91,125.393,314.844,125.393z
	 M297.488,131.141c0.142-0.538,0.68-0.85,1.217-0.708c0.538,0.142,0.85,0.679,0.708,1.218l-5.917,22.083
	c-0.142,0.509-0.68,0.85-1.218,0.708c-0.538-0.142-0.85-0.708-0.708-1.245L297.488,131.141z M380.131,152.46v-3.85
	c0-0.425-0.057-0.821-0.227-1.19c-0.142-0.369-0.369-0.708-0.679-1.019c-0.284-0.284-0.623-0.51-0.992-0.651l-0.198-0.085v6.795
	L380.131,152.46L380.131,152.46z M376.054,119.279H356.66v7.389c0,0.566-0.452,1.02-1.019,1.02h-2.803
	c-0.595,0-1.161,0.283-1.557,0.679c-0.426,0.424-0.708,1.019-0.708,1.67s0.283,1.218,0.708,1.642
	c0.424,0.425,1.019,0.708,1.67,0.708h2.69c0.566,0,1.019,0.424,1.019,0.991v4.105c0,1.529,0.566,2.944,1.529,4.021
	c0.963,1.076,2.293,1.783,3.794,1.982c0.537,0,0.962,0.452,0.962,0.991v3.086c0,1.133,0.68,2.179,1.756,2.633
	c1.444,0.594,3.142-0.085,3.737-1.557c0.141-0.34,0.226-0.708,0.226-1.076v-3.228c0-0.452,0.341-0.878,0.793-0.963
	c1.897-0.368,3.568-1.387,4.728-2.803c1.161-1.415,1.869-3.199,1.869-5.181L376.054,119.279L376.054,119.279z M305.133,135.756
	c-0.397-0.397-0.397-1.019,0-1.415c0.397-0.397,1.019-0.397,1.415,0l6.993,7.021c0.397,0.397,0.397,1.019,0,1.415l-6.993,6.993
	c-0.397,0.397-1.019,0.397-1.415,0c-0.397-0.397-0.397-1.02,0-1.416l6.285-6.284L305.133,135.756z M284.437,134.341
	c0.397-0.397,1.019-0.397,1.415,0c0.397,0.397,0.397,1.019,0,1.415l-6.313,6.314l6.313,6.284c0.397,0.397,0.397,1.02,0,1.416
	c-0.397,0.397-1.019,0.397-1.415,0l-6.993-6.993c-0.397-0.397-0.397-1.019,0-1.415L284.437,134.341z M359.661,134.51
	c-0.056-0.538,0.312-1.048,0.878-1.104c0.538-0.086,1.048,0.311,1.104,0.849c0,0.028,0.284,2.972,4.446,2.491
	c0.537-0.056,1.048,0.341,1.104,0.878c0.057,0.566-0.34,1.048-0.877,1.105C360.143,139.436,359.661,134.51,359.661,134.51z
	 M459.801,138.163h-71.828c-0.284,0-0.566-0.114-0.765-0.34c-0.368-0.425-0.311-1.048,0.085-1.416l10.759-9.371v-16.733
	c0-2.605,1.048-4.983,2.775-6.71s4.077-2.775,6.71-2.775h52.264c2.633,0,5.011,1.048,6.71,2.775c1.727,1.727,2.803,4.105,2.803,6.71
	v18.375c0,2.605-1.076,4.983-2.803,6.71C464.812,137.087,462.434,138.163,459.801,138.163z M459.801,102.801h-52.264
	c-2.066,0-3.935,0.849-5.295,2.208c-1.358,1.359-2.208,3.228-2.208,5.295v17.185c0,0.312-0.141,0.623-0.397,0.793l-9.031,7.87
	h69.195c2.066,0,3.963-0.821,5.294-2.18c1.359-1.358,2.208-3.227,2.208-5.294v-18.375c0-2.066-0.849-3.935-2.208-5.295
	C463.765,103.65,461.868,102.801,459.801,102.801z M441.71,122.393l3.058-0.284c0.198,1.02,0.566,1.784,1.133,2.265
	c0.565,0.481,1.33,0.736,2.264,0.736c1.02,0,1.784-0.227,2.293-0.651c0.538-0.424,0.793-0.934,0.793-1.5
	c0-0.369-0.113-0.708-0.34-0.963c-0.199-0.255-0.594-0.481-1.133-0.679c-0.369-0.114-1.19-0.341-2.52-0.68
	c-1.699-0.397-2.86-0.934-3.539-1.528c-0.963-0.85-1.444-1.898-1.444-3.143c0-0.793,0.227-1.529,0.679-2.236
	c0.453-0.68,1.105-1.218,1.926-1.586c0.849-0.34,1.897-0.537,3.086-0.537c1.954,0,3.426,0.424,4.417,1.302
	c0.991,0.849,1.5,2.01,1.557,3.426l-3.143,0.141c-0.141-0.792-0.424-1.387-0.877-1.727c-0.424-0.34-1.105-0.537-1.983-0.537
	c-0.934,0-1.642,0.198-2.151,0.566c-0.34,0.255-0.509,0.565-0.509,0.962c0,0.369,0.17,0.708,0.481,0.963
	c0.397,0.34,1.358,0.679,2.887,1.048c1.529,0.368,2.662,0.736,3.398,1.104c0.736,0.397,1.302,0.935,1.727,1.586
	c0.424,0.679,0.622,1.5,0.622,2.491c0,0.906-0.255,1.727-0.736,2.52c-0.509,0.765-1.217,1.359-2.123,1.727
	c-0.906,0.397-2.038,0.566-3.397,0.566c-1.954,0-3.483-0.452-4.53-1.358C442.53,125.478,441.908,124.148,441.71,122.393z
	 M427.157,122.393l3.086-0.284c0.17,1.02,0.538,1.784,1.104,2.265s1.331,0.736,2.294,0.736c1.019,0,1.783-0.227,2.293-0.651
	c0.509-0.424,0.764-0.934,0.764-1.5c0-0.369-0.113-0.708-0.312-0.963c-0.227-0.255-0.594-0.481-1.133-0.679
	c-0.368-0.114-1.217-0.341-2.52-0.68c-1.698-0.397-2.887-0.934-3.567-1.528c-0.963-0.85-1.444-1.898-1.444-3.143
	c0-0.793,0.227-1.529,0.679-2.236c0.453-0.68,1.105-1.218,1.954-1.586c0.85-0.34,1.869-0.537,3.058-0.537
	c1.982,0,3.454,0.424,4.445,1.302c0.991,0.849,1.5,2.01,1.557,3.426l-3.171,0.141c-0.113-0.792-0.424-1.387-0.849-1.727
	c-0.453-0.34-1.105-0.537-2.011-0.537s-1.613,0.198-2.151,0.566c-0.312,0.255-0.481,0.565-0.481,0.962
	c0,0.369,0.142,0.708,0.453,0.963c0.397,0.34,1.358,0.679,2.888,1.048c1.557,0.368,2.69,0.736,3.426,1.104
	c0.736,0.397,1.302,0.935,1.699,1.586c0.424,0.679,0.622,1.5,0.622,2.491c0,0.906-0.226,1.727-0.736,2.52
	c-0.481,0.765-1.189,1.359-2.094,1.727c-0.906,0.397-2.039,0.566-3.398,0.566c-1.982,0-3.482-0.452-4.558-1.358
	C428.007,125.478,427.384,124.148,427.157,122.393z M422.203,121.742l3.057,0.963c-0.453,1.698-1.246,2.972-2.321,3.793
	c-1.105,0.849-2.492,1.245-4.162,1.245c-2.067,0-3.765-0.707-5.097-2.123c-1.33-1.415-2.01-3.341-2.01-5.804
	c0-2.605,0.679-4.614,2.01-6.059c1.331-1.415,3.114-2.151,5.295-2.151c1.897,0,3.454,0.566,4.643,1.699
	c0.708,0.679,1.245,1.613,1.614,2.86l-3.143,0.764c-0.17-0.821-0.566-1.444-1.133-1.926c-0.594-0.452-1.302-0.707-2.151-0.707
	c-1.161,0-2.095,0.424-2.803,1.245c-0.736,0.849-1.077,2.18-1.077,4.048c0,1.954,0.341,3.37,1.048,4.219
	c0.708,0.821,1.642,1.245,2.775,1.245c0.85,0,1.557-0.255,2.152-0.792C421.523,123.723,421.948,122.874,422.203,121.742z
	 M349.016,113.163c-2.066,4.474,0.821,10.702,2.038,12.938c0.509-0.255,1.076-0.397,1.67-0.424h0.199
	c0.481-0.057,0.963-0.057,1.443-0.057h0.284v-7.333c0-0.537,0.452-0.991,0.991-0.991h21.404c0.566,0,0.991,0.453,0.991,0.991v6.172
	c3.624-1.897,5.267-4.049,5.861-5.011c-3.143-3.85-6.399-6.767-9.768-8.89c-3.511-2.208-7.162-3.568-10.985-4.219
	c-6.909-1.189-7.673,3.455-7.673,3.483c-0.028,0.142-0.085,0.312-0.198,0.424c-0.341,0.453-0.963,0.509-1.387,0.199
	C353.886,110.417,351.282,108.293,349.016,113.163z M329.137,59.456c4.237,0.006,8.078,1.732,10.876,4.502
	c2.803,2.803,4.529,6.653,4.529,10.928c0,2.916-0.821,5.634-2.236,7.956c-1.33,2.236-3.228,4.105-5.492,5.407v8.012
	c0,0.397-0.029,0.793-0.085,1.161c0.056,0.114,0.085,0.255,0.085,0.397c0,0.312-0.142,0.594-0.369,0.764
	c-0.368,1.19-1.019,2.265-1.897,3.143c-1.387,1.387-3.313,2.236-5.436,2.236c-2.151,0-4.077-0.849-5.463-2.236l-0.057-0.085
	c-0.85-0.85-1.472-1.897-1.841-3.058c-0.226-0.17-0.368-0.452-0.368-0.764c0-0.142,0.028-0.283,0.085-0.397
	c-0.057-0.368-0.085-0.764-0.085-1.161v-8.012c-2.265-1.302-4.162-3.171-5.492-5.407c-1.416-2.322-2.237-5.04-2.237-7.956
	c0-4.275,1.727-8.125,4.53-10.928c2.803-2.775,6.653-4.502,10.928-4.502H329.137z M334.209,98.837h-10.221
	c0.255,0.51,0.622,0.992,1.019,1.416l0.057,0.056c1.019,1.02,2.463,1.671,4.02,1.671c1.585,0,3.029-0.651,4.049-1.671
	C333.558,99.884,333.926,99.375,334.209,98.837z M334.804,93.684h-11.41v2.577c0,0.198,0,0.368,0.029,0.566h11.353
	c0.028-0.199,0.028-0.369,0.028-0.566V93.684z M163.222,52.935c0.084-0.268,0.275-0.487,0.528-0.606
	c0.253-0.12,0.544-0.128,0.804-0.022c5.348,2.218,10.162,5.467,14.193,9.498c7.927,7.899,12.797,18.799,12.797,30.86
	c0,0.566-0.453,1.019-0.991,1.019H67.482c-0.538,0-0.991-0.452-0.991-1.019c0-7.758,3.142-14.807,8.238-19.904
	c5.097-5.096,12.146-8.238,19.932-8.238c3.114,0,6.145,0.509,8.975,1.472c2.577,0.849,4.983,2.094,7.163,3.624
	c3.822-6.144,9.145-11.268,15.43-14.864c1.373-0.787,2.794-1.502,4.257-2.139c0.502-0.218,1.087,0.012,1.306,0.513
	c0.001,0,0.001,0.001,0.001,0.001c0.107,0.243,0.112,0.517,0.015,0.764s-0.289,0.444-0.531,0.55
	c-1.393,0.607-2.748,1.288-4.057,2.038c-6.313,3.596-11.58,8.805-15.26,15.034c-0.012,0.025-0.025,0.044-0.037,0.063l-0.011,0.016
	c-0.012,0.019-0.025,0.038-0.037,0.063c-0.34,0.452-0.963,0.537-1.387,0.198c-2.236-1.698-4.756-3.057-7.474-3.963
	c-2.634-0.906-5.436-1.359-8.353-1.359c-7.247,0-13.787,2.916-18.515,7.645c-4.502,4.529-7.39,10.673-7.645,17.497h121.034
	c-0.255-11.098-4.869-21.149-12.174-28.453c-3.857-3.858-8.461-6.965-13.571-9.081c-0.472-0.193-0.718-0.716-0.565-1.203
	C163.222,52.936,163.222,52.936,163.222,52.935z M323.393,78.34c0-0.765,0.312-1.472,0.821-1.954
	c0.481-0.509,1.19-0.821,1.954-0.821h5.606c0.764,0,1.472,0.312,1.954,0.821c0.509,0.481,0.821,1.189,0.821,1.954v0.311
	c0,0.312-0.057,0.651-0.199,0.935l-0.028,0.057c-0.113,0.283-0.283,0.537-0.481,0.736c-0.227,0.226-0.509,0.424-0.821,0.537
	l-0.056,0.029c-0.284,0.113-0.566,0.17-0.878,0.17c-0.085,0-0.142,0-0.199,0.028c-0.028,0.028-0.085,0.057-0.141,0.113
	c-0.057,0.029-0.085,0.085-0.114,0.142c0,0.057-0.028,0.113-0.028,0.198v10.08h3.199v-4.02c0-0.369,0.198-0.708,0.538-0.878
	c2.179-1.133,3.991-2.86,5.266-4.955c1.218-2.039,1.926-4.417,1.926-6.937c0-3.708-1.501-7.077-3.936-9.512
	c-2.434-2.435-5.804-3.935-9.484-3.935c-3.708,0-7.077,1.5-9.512,3.935c-2.435,2.435-3.935,5.804-3.935,9.512
	c0,2.52,0.707,4.898,1.925,6.937c1.246,2.067,3.058,3.765,5.21,4.927c0.34,0.141,0.594,0.509,0.594,0.906v4.02h2.944v-10.08
	c0-0.085,0-0.141-0.028-0.198l-0.028-0.028c0-0.029-0.029-0.085-0.085-0.114c-0.057-0.056-0.085-0.085-0.142-0.113
	s-0.113-0.028-0.198-0.028c-0.312,0-0.623-0.057-0.935-0.199c-0.312-0.113-0.566-0.312-0.793-0.537
	c-0.226-0.227-0.424-0.481-0.537-0.793c-0.142-0.284-0.199-0.623-0.199-0.935L323.393,78.34L323.393,78.34z M331.774,77.547h-5.606
	c-0.226,0-0.396,0.085-0.537,0.227c-0.142,0.141-0.227,0.34-0.227,0.566v0.311c0,0.057,0,0.114,0.028,0.171
	c0.029,0.056,0.057,0.113,0.085,0.17c0.057,0.028,0.114,0.056,0.17,0.085c0.057,0.028,0.114,0.028,0.171,0.028
	c0.34,0,0.651,0.085,0.962,0.198c0.284,0.142,0.566,0.312,0.793,0.538c0.198,0.198,0.369,0.453,0.509,0.736l0.029,0.057
	c0.113,0.312,0.198,0.622,0.198,0.962v10.023h1.274V81.595c0-0.34,0.056-0.65,0.17-0.962c0.141-0.284,0.312-0.566,0.537-0.793
	c0.227-0.227,0.51-0.397,0.821-0.538c0.284-0.113,0.595-0.198,0.935-0.198h0.17v-0.028c0.057-0.029,0.113-0.057,0.17-0.085
	c0.028-0.057,0.057-0.085,0.085-0.142v-0.028c0.028-0.057,0.057-0.114,0.057-0.171v-0.31c0-0.227-0.085-0.425-0.227-0.566
	C332.199,77.632,332.001,77.547,331.774,77.547z M306.123,83.153h-17.015c-0.566,0-1.02-0.453-1.02-0.992
	c0-0.566,0.453-1.019,1.02-1.019h17.015c0.566,0,1.02,0.452,1.02,1.019C307.143,82.699,306.69,83.153,306.123,83.153z
	 M364.701,83.153h-17.044c-0.537,0-0.991-0.453-0.991-0.992c0-0.566,0.453-1.019,0.991-1.019h17.044
	c0.566,0,0.991,0.452,0.991,1.019C365.692,82.699,365.268,83.153,364.701,83.153z M310.059,59.738c0.369,0.397,0.369,1.019,0,1.415
	c-0.397,0.397-1.048,0.397-1.415,0l-12.429-12.4c-0.369-0.397-0.369-1.02,0-1.416c0.396-0.397,1.048-0.397,1.415,0L310.059,59.738z
	 M345.166,61.154c-0.397,0.397-1.02,0.397-1.415,0c-0.397-0.397-0.397-1.019,0-1.415l12.4-12.401c0.396-0.397,1.02-0.397,1.416,0
	s0.396,1.02,0,1.416L345.166,61.154z M327.895,55.294c0,0.566-0.452,0.991-0.991,0.991c-0.566,0-0.991-0.424-0.991-0.991V38.759
	c0-0.537,0.424-0.991,0.991-0.991c0.538,0,0.991,0.453,0.991,0.991V55.294z M141.435,49.482c0.283-0.041,0.569,0.041,0.787,0.226
	c0.218,0.184,0.347,0.452,0.354,0.738c0.001,0,0.001,0.001,0.001,0.001c0.012,0.497-0.35,0.926-0.842,0.997
	c-2.489,0.371-4.904,0.962-7.227,1.751c-0.001,0-0.001,0-0.001,0c-0.394,0.134-0.824-0.046-1.006-0.418
	c-0.05-0.102-0.102-0.209-0.153-0.314c-0.104-0.212-0.111-0.458-0.02-0.676c0.091-0.218,0.271-0.387,0.493-0.462
	c0.001,0,0.001,0,0.001,0C136.267,50.492,138.812,49.87,141.435,49.482z M147.866,50.99c-1.712,0.001-1.722-1.982,0.022-1.982
	c4.31,0,8.471,0.625,12.4,1.79c0.024,0.006,0.048,0.014,0.074,0.022c0.257,0.076,0.471,0.254,0.595,0.49
	c0.124,0.238,0.147,0.515,0.062,0.769l0,0c-0.169,0.51-0.712,0.794-1.228,0.64c-0.025-0.007-0.048-0.014-0.07-0.02
	c-3.753-1.113-7.725-1.71-11.834-1.71L147.866,50.99L147.866,50.99z"></path>
</svg>